<svg xmlns="http://www.w3.org/2000/svg" viewBox="0 0 64 64" width="64" height="64"><style>@keyframes fk{0%,100%{transform:scaleY(1) translateY(0)}50%{transform:scaleY(1.04) translateY(-.5px)}}.fl{transform-box:fill-box;transform-origin:center bottom;animation:fk 1.6s ease-in-out infinite}@media(prefers-reduced-motion:reduce){.fl{animation:none}}</style><g class="fl"><path d="M36 7 C 42 16 47 25 49 35 C 51 45 47 54 38 57 C 33 59 27 59 23 56 C 15 52 13 43 15 35 C 16 29 20 24 23 19 C 24 23 26 25 27 22 C 29 17 30 13 33 12 C 34 10 35 8 36 7 Z" fill="#F6941E"/><path d="M35 17 C 40 24 44 30 45 38 C 46 46 42 53 35 55 C 31 56 26 55 23 53 C 17 49 16 42 18 36 C 19 31 22 27 24 24 C 25 28 27 29 28 26 C 30 22 31 20 33 19 C 34 18 34 17 35 17 Z" fill="#FBB03B"/><path d="M34 31 C 38 36 40 40 40 45 C 40 50 37 53 33 53 C 30 53 26 51 25 47 C 24 43 26 39 29 36 C 30 38 31 38 32 36 C 33 34 33 32 34 31 Z" fill="#FCE3A6"/></g></svg>