<svg xmlns="http://www.w3.org/2000/svg" xmlns:xlink="http://www.w3.org/1999/xlink" width="512" zoomAndPan="magnify" viewBox="0 0 384 383.999986" height="512" preserveAspectRatio="xMidYMid meet" version="1.0"><path fill="#438262" d="M 366.769531 262.421875 C 366.695312 260.683594 366.695312 258.945312 366.695312 257.285156 C 366.695312 251.464844 366.769531 246.480469 363.824219 243.53125 C 362.3125 242.019531 360.273438 241.265625 357.78125 241.265625 C 353.320312 241.265625 347.957031 243.683594 341.683594 246.554688 C 336.015625 249.125 329.59375 252.070312 323.699219 252.902344 L 322.640625 253.054688 C 316.976562 253.808594 309.796875 254.414062 302.242188 255.015625 C 293.097656 255.773438 282.820312 256.605469 272.921875 257.890625 C 260.078125 259.625 248.894531 265.746094 242.773438 269.753906 C 245.113281 255.09375 250.78125 216.632812 248.363281 193.28125 C 245.945312 169.859375 239.597656 138.800781 212.019531 138.800781 C 196.226562 138.800781 179.601562 147.039062 166.226562 153.761719 C 166.152344 153.761719 166.078125 153.839844 166 153.839844 L 163.734375 154.972656 C 157.992188 157.84375 150.886719 161.320312 147.488281 161.320312 C 137.136719 161.320312 125.195312 153.308594 117.488281 145.90625 C 108.574219 137.289062 94.972656 127.015625 80.613281 127.015625 C 79.253906 127.015625 77.894531 127.164062 76.535156 127.316406 C 75.023438 127.089844 73.585938 127.015625 72.152344 127.089844 C 75.175781 119.609375 75.550781 110.917969 73.132812 102.757812 C 67.617188 84.167969 49.484375 72.988281 32.707031 77.824219 C 25.152344 80.015625 18.804688 85.226562 14.875 92.40625 C 10.339844 100.640625 9.359375 110.84375 12.230469 120.441406 C 16.839844 136.082031 30.441406 146.507812 44.648438 146.507812 C 47.292969 146.507812 50.011719 146.132812 52.65625 145.375 C 53.035156 145.226562 53.410156 145.074219 53.867188 144.996094 C 52.203125 150.0625 51.75 155.5 52.582031 160.867188 C 53.941406 169.40625 55.300781 176.886719 56.585938 183.460938 C 58.324219 192.90625 59.757812 200.386719 59.910156 205.296875 C 59.984375 209 59.835938 212.625 59.609375 216.554688 C 59.230469 223.582031 58.851562 230.914062 60.136719 239.148438 C 61.496094 247.308594 62.253906 278.0625 62.480469 286 C 59.230469 286.90625 55.453125 287.660156 51.75 288.339844 C 40.492188 290.53125 28.855469 292.722656 28.855469 301.261719 C 28.855469 303.605469 29.683594 305.644531 31.273438 307.15625 C 34.671875 310.480469 41.019531 311.007812 46.761719 311.007812 C 48.273438 311.007812 49.710938 310.933594 51.070312 310.933594 C 52.203125 310.933594 53.183594 310.859375 54.09375 310.859375 L 71.773438 310.859375 C 78.347656 310.859375 83.863281 306.25 84.996094 299.828125 C 88.699219 277.914062 90.210938 238.46875 88.851562 222.753906 C 88.699219 220.863281 89.003906 216.328125 89.53125 210.511719 C 89.605469 210.511719 89.683594 210.585938 89.757812 210.585938 C 93.15625 211.570312 96.710938 212.550781 100.640625 213.761719 C 114.542969 218.21875 125.953125 220.109375 138.722656 220.109375 C 140.613281 220.109375 142.574219 220.03125 144.539062 219.957031 C 151.113281 219.652344 160.710938 217.613281 173.179688 213.988281 L 176.804688 212.851562 L 178.316406 212.398438 C 183.605469 210.738281 188.214844 209.152344 191.085938 208.167969 C 191.769531 216.328125 193.730469 238.394531 196.300781 252.597656 C 196.679688 254.789062 197.132812 257.285156 197.585938 260.003906 C 200.910156 280.179688 205.898438 310.78125 224.410156 310.78125 C 236.5 310.78125 239.976562 309.273438 247.683594 306.023438 C 252.292969 304.058594 258.566406 301.414062 269.445312 297.9375 C 294.835938 289.851562 312.214844 284.5625 324.152344 281.464844 C 326.875 280.785156 329.441406 280.105469 331.558594 279.574219 C 337.152344 278.289062 344.632812 283.730469 347.804688 289.324219 C 349.242188 291.816406 348.9375 296.878906 346.898438 303.300781 C 346.371094 305.039062 346.671875 306.929688 347.730469 308.363281 C 348.789062 309.800781 350.449219 310.707031 352.339844 310.707031 L 363.597656 310.707031 L 364.277344 310.101562 C 374.628906 301.035156 371.078125 284.109375 368.507812 271.792969 C 367.601562 268.089844 366.847656 264.765625 366.769531 262.421875 Z M 352.1875 306.023438 C 351.886719 306.023438 351.660156 305.871094 351.582031 305.71875 C 351.507812 305.570312 351.355469 305.34375 351.433594 305.039062 C 353.171875 299.523438 354.605469 291.890625 351.886719 287.132812 C 348.183594 280.707031 340.324219 274.664062 333.070312 274.664062 C 332.164062 274.664062 331.179688 274.738281 330.273438 274.964844 C 328.988281 275.269531 327.480469 275.644531 325.96875 276.023438 C 325.96875 275.722656 325.96875 275.417969 326.042969 275.117188 C 326.195312 272.320312 326.34375 269.601562 326.421875 266.878906 C 326.421875 266.503906 326.421875 266.199219 326.421875 265.824219 C 326.496094 263.40625 326.570312 260.988281 326.570312 258.644531 C 326.570312 258.265625 326.570312 257.890625 326.570312 257.511719 C 332.464844 256.226562 338.433594 253.582031 343.722656 251.164062 C 349.164062 248.671875 354.304688 246.328125 357.777344 246.328125 C 359.59375 246.328125 360.199219 246.933594 360.347656 247.082031 C 361.859375 248.59375 361.859375 252.824219 361.785156 257.359375 C 361.785156 259.097656 361.785156 260.910156 361.859375 262.726562 C 361.933594 265.445312 362.691406 268.996094 363.523438 273.078125 C 365.789062 283.882812 368.8125 298.617188 361.480469 306.097656 L 352.1875 306.097656 Z M 245.570312 301.640625 C 238.085938 304.8125 235.292969 306.023438 224.183594 306.023438 C 209.902344 306.023438 205.066406 276.855469 202.195312 259.398438 C 201.742188 256.605469 201.289062 254.109375 200.910156 251.84375 C 197.660156 234.539062 195.46875 205.070312 195.46875 204.769531 L 195.242188 201.445312 L 192.222656 202.578125 C 192.144531 202.578125 186.402344 204.691406 178.695312 207.1875 C 178.695312 207.109375 178.695312 207.035156 178.695312 206.960938 C 178.847656 205.070312 178.921875 203.179688 178.996094 201.367188 C 178.996094 201.140625 178.996094 200.914062 178.996094 200.6875 C 178.996094 198.796875 178.996094 196.984375 178.847656 195.097656 C 178.847656 194.792969 178.847656 194.417969 178.769531 194.113281 C 178.621094 192.300781 178.46875 190.488281 178.242188 188.671875 C 178.167969 188.371094 178.167969 187.992188 178.089844 187.691406 C 177.863281 185.878906 177.5625 183.988281 177.183594 182.175781 C 177.109375 181.949219 177.109375 181.722656 177.03125 181.496094 C 176.65625 179.679688 176.203125 177.792969 175.671875 175.980469 C 175.671875 175.902344 175.597656 175.753906 175.597656 175.675781 C 175.066406 173.863281 174.464844 172.050781 173.859375 170.234375 C 173.785156 169.933594 173.707031 169.707031 173.558594 169.40625 C 172.953125 167.667969 172.273438 166.003906 171.515625 164.265625 C 171.367188 163.964844 171.214844 163.660156 171.140625 163.359375 C 170.382812 161.699219 169.550781 160.035156 168.722656 158.371094 C 168.644531 158.296875 168.644531 158.222656 168.570312 158.070312 C 181.492188 151.648438 197.433594 143.789062 211.941406 143.789062 C 229.925781 143.789062 239.902344 159.734375 243.378906 193.886719 C 246.25 221.84375 236.953125 274.285156 236.878906 274.816406 L 235.746094 281.238281 L 240.882812 277.082031 C 241.035156 276.929688 255.921875 265.144531 273.527344 262.726562 C 283.351562 261.441406 293.550781 260.609375 302.617188 259.851562 C 309.570312 259.324219 316.144531 258.796875 321.585938 258.117188 C 321.585938 258.417969 321.585938 258.796875 321.585938 259.097656 C 321.585938 261.742188 321.507812 264.460938 321.433594 267.257812 C 321.433594 267.636719 321.433594 268.015625 321.359375 268.390625 C 321.28125 270.886719 321.132812 273.453125 320.980469 276.023438 C 320.980469 276.402344 320.980469 276.855469 320.90625 277.234375 C 309.042969 280.40625 292.039062 285.542969 267.707031 293.328125 C 256.675781 296.953125 250.253906 299.675781 245.570312 301.640625 Z M 102 209.152344 C 97.992188 207.867188 94.292969 206.808594 90.964844 205.902344 C 90.589844 205.824219 90.210938 205.675781 89.832031 205.597656 C 89.910156 204.84375 89.984375 204.089844 90.058594 203.257812 C 91.570312 186.933594 93.535156 164.570312 92.101562 151.722656 C 91.722656 148.625 91.34375 144.996094 90.816406 141.75 C 90.210938 138.121094 88.625 134.949219 86.28125 132.453125 C 97.011719 134.644531 107.136719 142.503906 114.164062 149.378906 C 122.550781 157.542969 135.777344 166.230469 147.5625 166.230469 C 151.566406 166.230469 157.085938 163.8125 164.261719 160.261719 C 164.339844 160.335938 164.339844 160.488281 164.414062 160.5625 C 165.246094 162.152344 166.078125 163.8125 166.832031 165.476562 C 166.984375 165.777344 167.058594 166.003906 167.210938 166.308594 C 167.964844 167.96875 168.570312 169.632812 169.175781 171.292969 C 169.25 171.597656 169.402344 171.898438 169.476562 172.125 C 170.082031 173.863281 170.609375 175.601562 171.140625 177.339844 C 171.214844 177.566406 171.289062 177.792969 171.367188 178.09375 C 171.820312 179.90625 172.273438 181.722656 172.648438 183.609375 C 172.648438 183.761719 172.726562 183.914062 172.726562 184.0625 C 173.105469 185.953125 173.40625 187.917969 173.632812 189.808594 C 173.632812 189.882812 173.632812 189.882812 173.632812 189.957031 C 173.859375 191.921875 174.011719 193.8125 174.085938 195.777344 C 174.085938 196.003906 174.085938 196.152344 174.085938 196.378906 C 174.160156 198.269531 174.160156 200.160156 174.085938 201.972656 C 174.085938 202.199219 174.085938 202.5 174.085938 202.726562 C 174.011719 204.542969 173.859375 206.429688 173.707031 208.242188 C 173.707031 208.394531 173.707031 208.546875 173.632812 208.699219 C 160.785156 212.625 150.585938 214.816406 144.164062 215.042969 C 129.578125 215.800781 117.414062 214.0625 102 209.152344 Z M 84.542969 209.226562 C 83.9375 216.027344 83.5625 220.9375 83.789062 223.28125 C 85.148438 238.695312 83.636719 277.460938 80.011719 299.070312 C 79.328125 303.074219 75.777344 306.023438 71.621094 306.023438 L 53.941406 306.023438 C 53.035156 306.023438 51.976562 306.023438 50.84375 306.097656 C 45.78125 306.25 37.394531 306.476562 34.597656 303.679688 C 33.917969 303.074219 33.691406 302.320312 33.691406 301.261719 C 33.691406 296.804688 43.738281 294.914062 52.65625 293.175781 C 57.191406 292.269531 61.949219 291.363281 65.804688 290.078125 L 67.542969 289.472656 L 67.542969 287.660156 C 67.464844 286.074219 66.636719 247.988281 65.125 238.316406 C 63.839844 230.609375 64.21875 223.582031 64.59375 216.78125 C 64.820312 212.777344 65.046875 209 64.898438 205.070312 C 64.820312 202.578125 64.445312 199.554688 63.914062 196.078125 C 63.3125 192.148438 62.480469 187.617188 61.496094 182.476562 C 61.421875 182.097656 61.347656 181.722656 61.269531 181.417969 C 60.0625 175.148438 58.777344 168.042969 57.492188 160.035156 C 56.511719 153.761719 57.566406 147.339844 60.515625 141.75 C 61.496094 139.859375 62.707031 138.046875 64.140625 136.382812 C 65.578125 134.644531 67.464844 133.359375 69.429688 132.605469 C 70.792969 132.078125 72.226562 131.851562 73.664062 131.851562 C 74.644531 131.851562 75.628906 132 76.609375 132.226562 C 76.761719 132.226562 76.910156 132.304688 77.0625 132.304688 C 81.824219 133.589844 85.300781 137.515625 86.054688 142.503906 C 86.585938 145.601562 86.960938 149.230469 87.339844 152.25 C 88.777344 164.570312 86.734375 186.632812 85.300781 202.804688 C 85.222656 203.257812 85.222656 203.710938 85.148438 204.164062 C 85.074219 204.996094 84.996094 205.824219 84.921875 206.65625 C 84.695312 207.640625 84.621094 208.394531 84.542969 209.226562 Z M 16.914062 119.078125 C 14.496094 110.769531 15.328125 101.925781 19.183594 94.824219 C 22.507812 88.777344 27.796875 84.394531 34.066406 82.582031 C 36.257812 81.902344 38.527344 81.601562 40.71875 81.601562 C 52.808594 81.601562 64.367188 90.59375 68.375 104.117188 C 70.792969 112.429688 69.960938 121.269531 66.105469 128.375 C 66.03125 128.523438 65.957031 128.601562 65.878906 128.75 C 63.765625 129.808594 61.800781 131.320312 60.136719 133.285156 C 58.851562 134.871094 57.71875 136.535156 56.738281 138.195312 C 55 139.253906 53.109375 140.085938 51.144531 140.691406 C 37.015625 144.847656 21.675781 135.097656 16.914062 119.078125 Z M 16.914062 119.078125 " fill-opacity="1" fill-rule="nonzero"/></svg>