<svg xmlns="http://www.w3.org/2000/svg" xmlns:xlink="http://www.w3.org/1999/xlink" width="512" zoomAndPan="magnify" viewBox="0 0 384 383.999986" height="512" preserveAspectRatio="xMidYMid meet" version="1.0"><path fill="#438262" d="M 9.71875 254.613281 L 56.03125 254.613281 C 58.617188 254.613281 61.046875 253.59375 62.851562 251.792969 C 64.496094 250.070312 65.4375 247.796875 65.359375 245.445312 C 65.28125 241.292969 65.042969 233.925781 65.042969 228.832031 C 65.203125 228.597656 65.359375 228.359375 65.515625 228.125 L 66.691406 226.558594 C 66.691406 226.558594 66.691406 226.558594 66.691406 226.480469 L 68.570312 223.816406 C 69.824219 222.011719 71.234375 220.210938 72.648438 218.25 C 81.660156 206.027344 91.53125 192.546875 96.078125 182.046875 C 101.40625 198.660156 111.59375 218.09375 126.957031 240.820312 C 119.117188 243.40625 111.59375 246.386719 105.484375 249.050781 C 102.894531 250.226562 101.484375 252.890625 102.035156 255.632812 C 102.660156 258.453125 104.933594 260.335938 107.832031 260.335938 L 164.804688 260.335938 C 180.949219 260.335938 211.75 255.632812 215.589844 255.007812 C 232.515625 256.964844 258.535156 257.671875 277.261719 257.671875 C 281.808594 257.671875 285.570312 257.121094 288.785156 256.023438 C 288.863281 256.023438 288.941406 255.945312 289.019531 255.945312 C 289.097656 255.867188 289.878906 255.632812 293.25 254.847656 C 297.796875 253.832031 305.632812 252.339844 315.507812 250.539062 C 315.429688 251.007812 315.429688 251.558594 315.429688 252.027344 L 315.429688 253.28125 L 316.367188 254.066406 C 316.839844 254.457031 324.519531 260.335938 336.273438 260.335938 C 341.367188 260.335938 347.246094 259.238281 353.59375 256.023438 C 384.078125 240.742188 371.929688 212.0625 371.773438 211.746094 L 370.914062 209.789062 L 368.875 210.257812 C 368.71875 210.257812 368.5625 210.335938 368.40625 210.414062 C 363.152344 204.066406 354.378906 199.914062 344.582031 199.914062 C 330.867188 199.914062 319.425781 207.90625 316.289062 218.722656 C 311.824219 217.703125 307.671875 215.902344 303.832031 213.234375 C 301.949219 211.980469 300.304688 210.570312 298.816406 209.082031 C 298.03125 208.300781 297.324219 207.515625 296.542969 206.730469 C 295.601562 205.792969 294.660156 204.773438 293.800781 203.753906 C 290.351562 200.070312 286.824219 196.230469 282.671875 193.015625 C 278.203125 189.648438 271.230469 185.730469 263.15625 186.121094 C 257.28125 186.433594 251.636719 190.195312 248.738281 195.445312 C 247.25 193.644531 245.523438 192 243.175781 191.292969 C 234.867188 184.867188 221.78125 177.265625 205.558594 177.109375 C 205.480469 177.109375 205.324219 177.109375 205.242188 177.109375 C 194.585938 177.109375 183.378906 181.105469 174.996094 187.765625 C 174.054688 188.160156 172.957031 188.785156 171.152344 189.804688 C 168.960938 191.058594 163.082031 194.351562 161.359375 194.113281 L 133.144531 150.308594 C 126.328125 139.726562 118.492188 129.070312 103.679688 125.074219 C 96.625 123.113281 88.789062 125.074219 83.226562 130.167969 C 73.742188 138.867188 72.097656 143.097656 69.355469 150.152344 C 68.179688 153.050781 66.925781 156.339844 64.808594 160.730469 C 61.285156 168.097656 57.757812 177.34375 53.996094 187.21875 C 50.703125 195.917969 47.332031 204.851562 43.886719 212.375 L 43.730469 212.296875 L 42.554688 214.726562 C 40.90625 218.171875 39.417969 220.917969 38.085938 223.109375 C 35.8125 226.714844 31.660156 228.125 26.800781 229.691406 C 24.527344 230.476562 22.179688 231.261719 19.984375 232.28125 C 19.433594 232.515625 18.417969 232.90625 17.164062 233.375 C 8.777344 236.355469 1.722656 239.175781 0.785156 243.484375 C 0.15625 246.152344 0.863281 248.894531 2.507812 251.007812 C 4.152344 253.28125 6.816406 254.613281 9.71875 254.613281 Z M 28.289062 234.628906 C 33.621094 232.828125 39.105469 231.027344 42.320312 225.929688 C 43.492188 224.128906 44.667969 222.011719 45.921875 219.425781 C 49.605469 221.386719 53.445312 223.109375 57.207031 224.757812 C 57.835938 225.070312 58.460938 225.304688 59.167969 225.617188 C 59.636719 225.773438 60.109375 226.011719 60.578125 226.246094 C 60.5 226.324219 60.421875 226.480469 60.34375 226.558594 L 59.871094 227.183594 L 59.871094 227.96875 C 59.871094 233.140625 60.03125 241.214844 60.1875 245.601562 C 60.1875 246.621094 59.871094 247.5625 59.089844 248.265625 C 58.304688 249.050781 57.128906 249.519531 55.953125 249.519531 L 9.71875 249.519531 C 8.386719 249.519531 7.210938 248.972656 6.347656 247.953125 C 5.5625 247.011719 5.328125 245.835938 5.5625 244.738281 C 6.113281 243.328125 10.5 241.136719 18.730469 238.234375 C 20.296875 237.6875 21.394531 237.292969 22.019531 236.980469 C 23.980469 236.042969 26.175781 235.335938 28.289062 234.628906 Z M 73.980469 152.03125 C 76.644531 145.292969 77.976562 141.84375 86.515625 134.007812 C 90.75 130.089844 96.785156 128.597656 102.191406 130.089844 C 114.023438 133.300781 120.84375 140.980469 128.679688 153.207031 L 157.046875 197.25 C 160.105469 201.953125 167.550781 197.71875 173.503906 194.351562 C 173.582031 194.351562 173.582031 194.269531 173.660156 194.269531 C 173.742188 196.621094 173.898438 198.972656 173.976562 201.324219 C 174.054688 202.96875 174.132812 204.539062 174.210938 206.183594 C 174.445312 210.101562 174.679688 214.019531 174.996094 217.9375 C 175.074219 218.722656 175.074219 219.503906 175.152344 220.210938 C 175.464844 223.972656 175.855469 227.65625 176.25 231.417969 C 168.804688 232.828125 160.339844 234.394531 150.230469 235.492188 C 144.351562 236.121094 138.082031 237.53125 131.890625 239.332031 C 113.789062 212.609375 102.816406 190.746094 98.585938 172.640625 C 98.273438 171.308594 97.019531 170.449219 95.765625 170.527344 L 93.492188 170.839844 L 93.335938 173.035156 C 92.707031 182.28125 78.679688 201.324219 68.492188 215.195312 C 66.769531 217.546875 65.125 219.742188 63.632812 221.855469 C 63.476562 221.777344 63.320312 221.699219 63.164062 221.699219 C 58.148438 219.664062 53.210938 217.3125 48.351562 214.804688 C 51.878906 207.125 55.328125 198.03125 58.617188 189.175781 C 62.300781 179.382812 65.828125 170.210938 69.199219 163.082031 C 71.472656 158.457031 72.882812 154.929688 73.980469 152.03125 Z M 251.871094 201.011719 C 253.125 195.839844 258.140625 191.527344 263.3125 191.292969 C 269.820312 190.902344 275.773438 194.269531 279.457031 197.171875 C 283.296875 200.070312 286.511719 203.597656 289.960938 207.28125 C 290.898438 208.300781 291.839844 209.316406 292.78125 210.257812 C 293.5625 211.042969 294.347656 211.902344 295.132812 212.6875 C 296.308594 213.863281 297.640625 215.039062 299.050781 216.136719 C 298.816406 216.605469 298.65625 217.074219 298.421875 217.625 C 298.1875 218.25 297.875 218.800781 297.640625 219.425781 C 297.246094 220.289062 296.933594 221.152344 296.542969 222.089844 C 296.308594 222.640625 296.070312 223.265625 295.835938 223.816406 C 295.523438 224.757812 295.132812 225.695312 294.816406 226.714844 C 294.660156 227.183594 294.503906 227.578125 294.347656 228.046875 C 289.332031 223.582031 279.378906 222.089844 264.488281 223.582031 L 262.921875 223.738281 C 256.964844 224.363281 250.226562 224.992188 243.410156 225.617188 C 243.410156 224.992188 243.410156 224.285156 243.410156 223.660156 C 243.410156 222.5625 243.410156 221.464844 243.410156 220.367188 C 243.410156 216.839844 243.488281 213.316406 243.566406 209.789062 C 243.644531 208.140625 243.722656 206.417969 243.722656 204.773438 C 243.800781 202.578125 243.878906 200.382812 243.957031 198.191406 C 243.957031 198.191406 243.957031 198.191406 244.035156 198.269531 C 244.507812 198.816406 244.976562 199.363281 245.445312 199.992188 C 246.152344 200.855469 246.777344 201.714844 247.484375 202.421875 L 250.695312 205.792969 Z M 321.226562 219.425781 C 323.96875 211.121094 333.375 204.929688 344.425781 204.929688 C 351.871094 204.929688 358.53125 207.671875 362.996094 212.0625 C 353.515625 215.742188 345.601562 222.640625 341.054688 231.496094 L 340.664062 232.28125 C 339.957031 233.769531 339.253906 235.179688 338.15625 236.042969 C 337.921875 236.199219 337.683594 236.355469 337.449219 236.511719 C 336.746094 236.902344 335.960938 237.214844 335.097656 237.453125 C 334.941406 237.53125 334.785156 237.53125 334.628906 237.609375 C 334 237.84375 333.296875 238.078125 332.667969 238.3125 C 332.589844 238.3125 332.433594 238.390625 332.355469 238.390625 C 331.570312 238.707031 330.476562 239.019531 329.378906 239.332031 C 329.300781 239.332031 329.144531 239.410156 329.0625 239.410156 C 323.8125 235.804688 320.445312 230.476562 320.445312 224.441406 C 320.445312 224.441406 320.445312 224.441406 320.445312 224.363281 C 320.445312 223.503906 320.523438 222.640625 320.679688 221.855469 C 320.757812 221.074219 320.992188 220.289062 321.226562 219.425781 Z M 360.566406 245.054688 C 358.140625 247.324219 355.082031 249.519531 351.164062 251.480469 C 335.960938 259.082031 324.128906 253.125 320.523438 250.851562 C 320.601562 250.382812 320.835938 249.910156 321.070312 249.519531 C 321.933594 248.109375 323.5 247.011719 325.539062 246.152344 C 326.398438 245.757812 327.339844 245.445312 328.359375 245.132812 C 329.144531 244.898438 329.925781 244.582031 330.789062 244.347656 C 331.179688 244.269531 331.492188 244.113281 331.808594 244.035156 C 332.667969 243.800781 333.53125 243.484375 334.238281 243.171875 C 334.628906 243.015625 335.097656 242.859375 335.570312 242.703125 C 335.804688 242.625 335.960938 242.546875 336.195312 242.46875 C 336.585938 242.308594 336.980469 242.230469 337.449219 242.074219 C 338.234375 241.839844 339.015625 241.449219 339.800781 241.054688 C 340.347656 240.742188 340.820312 240.429688 341.367188 240.039062 C 343.328125 238.46875 344.347656 236.433594 345.207031 234.550781 L 345.601562 233.769531 C 349.753906 225.617188 357.355469 219.269531 366.289062 216.214844 C 366.757812 216.058594 367.230469 215.820312 367.777344 215.742188 C 368.953125 219.503906 370.757812 227.96875 366.835938 236.511719 C 365.503906 239.410156 363.46875 242.308594 360.566406 245.054688 Z M 323.421875 241.527344 C 321.542969 242.390625 319.738281 243.40625 318.328125 244.816406 C 309.863281 246.386719 302.734375 247.71875 297.480469 248.738281 C 300.070312 243.484375 298.816406 237.453125 298.03125 234.238281 C 298.03125 234.082031 298.109375 234.003906 298.109375 233.847656 C 298.5 232.4375 298.894531 231.027344 299.285156 229.691406 C 299.441406 229.300781 299.519531 228.910156 299.675781 228.519531 C 299.988281 227.5 300.304688 226.480469 300.695312 225.539062 C 300.851562 225.070312 301.085938 224.597656 301.242188 224.050781 C 301.558594 223.1875 301.949219 222.25 302.261719 221.386719 C 302.496094 220.917969 302.65625 220.367188 302.890625 219.898438 C 303.046875 219.582031 303.203125 219.191406 303.28125 218.878906 C 307.042969 221.074219 311.039062 222.640625 315.273438 223.582031 C 315.273438 223.894531 315.195312 224.128906 315.195312 224.441406 C 315.351562 231.105469 318.40625 237.058594 323.421875 241.527344 Z M 197.484375 252.417969 C 186.671875 253.832031 173.347656 255.242188 164.726562 255.242188 L 107.753906 255.242188 C 107.285156 255.242188 107.050781 255.007812 106.972656 254.613281 C 106.894531 254.222656 107.050781 253.910156 107.441406 253.753906 C 113.789062 250.929688 121.703125 247.796875 129.855469 245.289062 C 130.714844 245.054688 131.578125 244.738281 132.441406 244.503906 C 133.304688 244.269531 134.164062 244.035156 135.027344 243.800781 C 140.433594 242.308594 145.839844 241.136719 150.855469 240.585938 C 160.964844 239.488281 169.429688 238 176.875 236.511719 C 177.738281 236.355469 178.519531 236.199219 179.382812 236.039062 C 180.246094 235.882812 181.027344 235.726562 181.890625 235.570312 C 190.199219 234.003906 197.171875 232.75 204.226562 232.75 C 204.695312 232.75 205.164062 232.75 205.558594 232.75 C 214.335938 232.984375 226.402344 232.199219 238.550781 231.183594 C 239.414062 231.105469 240.273438 231.027344 241.058594 230.945312 C 241.921875 230.867188 242.78125 230.789062 243.566406 230.710938 C 250.539062 230.085938 257.4375 229.378906 263.472656 228.753906 L 265.039062 228.597656 C 280.945312 227.027344 290.976562 229.144531 292.625 234.394531 C 292.703125 234.550781 292.703125 234.707031 292.78125 234.789062 L 292.859375 235.179688 C 293.25 236.746094 293.722656 238.941406 293.800781 241.292969 C 293.800781 242.703125 293.640625 244.113281 293.171875 245.445312 C 292.859375 246.308594 292.46875 247.167969 291.839844 247.953125 C 291.371094 248.5 290.820312 249.050781 290.195312 249.519531 C 289.332031 250.148438 288.3125 250.695312 287.136719 251.164062 C 284.550781 252.105469 281.183594 252.65625 277.105469 252.65625 C 267.390625 252.65625 255.710938 252.5 244.425781 252.027344 C 243.566406 252.027344 242.703125 251.949219 241.839844 251.949219 C 240.980469 251.949219 240.117188 251.871094 239.253906 251.792969 C 230.554688 251.402344 222.328125 250.773438 215.589844 249.992188 L 215.273438 249.910156 L 214.960938 249.992188 C 214.882812 249.992188 213.394531 250.226562 211.042969 250.617188 C 207.910156 251.007812 203.050781 251.714844 197.484375 252.417969 Z M 238.707031 206.027344 C 238.707031 206.886719 238.628906 207.671875 238.628906 208.535156 C 238.472656 213.316406 238.472656 218.09375 238.472656 222.796875 C 238.472656 223.894531 238.550781 224.914062 238.550781 226.011719 C 226.480469 227.027344 214.414062 227.8125 205.714844 227.65625 C 197.800781 227.5 190.121094 228.832031 181.421875 230.476562 C 181.105469 227.890625 180.871094 225.226562 180.636719 222.640625 C 180.558594 221.542969 180.402344 220.523438 180.324219 219.425781 C 179.929688 214.648438 179.617188 209.867188 179.304688 205.007812 C 179.226562 203.988281 179.226562 202.96875 179.148438 202.03125 C 178.992188 198.503906 178.835938 194.898438 178.757812 191.371094 C 186.199219 185.652344 196.152344 182.203125 205.402344 182.359375 C 219.664062 182.4375 231.496094 189.019531 239.175781 194.898438 C 238.941406 198.582031 238.863281 202.265625 238.707031 206.027344 Z M 238.707031 206.027344 " fill-opacity="1" fill-rule="nonzero"/></svg>