<svg xmlns="http://www.w3.org/2000/svg" viewBox="0 0 120 120" width="120" height="120"><style>.breathe{transform-box:fill-box;transform-origin:50% 92%;animation:pbr 4.6s ease-in-out infinite}@keyframes pbr{0%,100%{transform:scale(1)}50%{transform:scale(1.02)}}@media(prefers-reduced-motion:reduce){.breathe{animation:none}}</style><g class="breathe"><defs>
      <linearGradient id="pot" x1="0" y1="0" x2="0" y2="1"><stop offset="0" stop-color="#E4A98C"/><stop offset="1" stop-color="#C67C5E"/></linearGradient>
      <linearGradient id="potRim" x1="0" y1="0" x2="0" y2="1"><stop offset="0" stop-color="#EEB79C"/><stop offset="1" stop-color="#D08965"/></linearGradient>
      <linearGradient id="leaf" x1="0" y1="0" x2="1" y2="0"><stop offset="0" stop-color="#43B18E"/><stop offset="1" stop-color="#158C6A"/></linearGradient>
      <linearGradient id="leafDark" x1="0" y1="0" x2="1" y2="0"><stop offset="0" stop-color="#2E9E7C"/><stop offset="1" stop-color="#0F7357"/></linearGradient>
      <linearGradient id="petalBack" x1="0" y1="0" x2="0" y2="1"><stop offset="0" stop-color="#F1BE4E"/><stop offset="1" stop-color="#D89419"/></linearGradient>
      <linearGradient id="petalFront" x1="0" y1="0" x2="0" y2="1"><stop offset="0" stop-color="#FDE08A"/><stop offset="1" stop-color="#F3B72E"/></linearGradient>
      <radialGradient id="seed" cx="0.42" cy="0.38" r="0.72"><stop offset="0" stop-color="#8A5A2C"/><stop offset="0.6" stop-color="#5E3A1C"/><stop offset="1" stop-color="#432814"/></radialGradient>
      <radialGradient id="glow" cx="0.5" cy="0.5" r="0.5"><stop offset="0" stop-color="#FCE39B" stop-opacity="0.55"/><stop offset="1" stop-color="#FCE39B" stop-opacity="0"/></radialGradient>
      <filter id="soft" x="-30%" y="-30%" width="160%" height="160%"><feDropShadow dx="0" dy="2.5" stdDeviation="2.5" flood-color="#0C3B2C" flood-opacity="0.16"/></filter>
    </defs><ellipse cx="60" cy="83" rx="24" ry="5.5" fill="#5A4230"/><path d="M38 85 L82 85 L76.5 111 Q76 114.5 72.5 114.5 L47.5 114.5 Q44 114.5 43.5 111 Z" fill="url(#pot)"/><rect x="33" y="77" width="54" height="11" rx="5.5" fill="url(#potRim)"/><path d="M60 80 Q56 62 60 54" stroke="url(#leafDark)" stroke-width="4" fill="none" stroke-linecap="round"/><g transform="translate(60,70) rotate(-58) scale(0.9)" filter="url(#soft)"><path d="M0 0 C -7 -7 -7 -20 0 -27 C 7 -20 7 -7 0 0 Z" fill="url(#leafDark)"/><path d="M0 -3 L0 -22" stroke="#0E7256" stroke-width="1.6" stroke-linecap="round" opacity="0.55"/></g><g transform="translate(60,70) rotate(58) scale(0.9)" filter="url(#soft)"><path d="M0 0 C -7 -7 -7 -20 0 -27 C 7 -20 7 -7 0 0 Z" fill="url(#leafDark)"/><path d="M0 -3 L0 -22" stroke="#0E7256" stroke-width="1.6" stroke-linecap="round" opacity="0.55"/></g><g transform="translate(60,60) rotate(-46) scale(0.78)" filter="url(#soft)"><path d="M0 0 C -7 -7 -7 -20 0 -27 C 7 -20 7 -7 0 0 Z" fill="url(#leaf)"/><path d="M0 -3 L0 -22" stroke="#0E7256" stroke-width="1.6" stroke-linecap="round" opacity="0.55"/></g><g transform="translate(60,60) rotate(46) scale(0.78)" filter="url(#soft)"><path d="M0 0 C -7 -7 -7 -20 0 -27 C 7 -20 7 -7 0 0 Z" fill="url(#leaf)"/><path d="M0 -3 L0 -22" stroke="#0E7256" stroke-width="1.6" stroke-linecap="round" opacity="0.55"/></g><circle cx="60" cy="40" r="34" fill="url(#glow)"/><g filter="url(#soft)"><g transform="translate(60,40) rotate(0.0)"><path d="M0 -5.8 C 6.4 -13.0 6.4 -25.4 0 -31.0 C -6.4 -25.4 -6.4 -13.0 0 -5.8 Z" fill="url(#petalBack)" opacity="1.0"/></g><g transform="translate(60,40) rotate(22.5)"><path d="M0 -5.8 C 6.4 -13.0 6.4 -25.4 0 -31.0 C -6.4 -25.4 -6.4 -13.0 0 -5.8 Z" fill="url(#petalBack)" opacity="1.0"/></g><g transform="translate(60,40) rotate(45.0)"><path d="M0 -5.8 C 6.4 -13.0 6.4 -25.4 0 -31.0 C -6.4 -25.4 -6.4 -13.0 0 -5.8 Z" fill="url(#petalBack)" opacity="1.0"/></g><g transform="translate(60,40) rotate(67.5)"><path d="M0 -5.8 C 6.4 -13.0 6.4 -25.4 0 -31.0 C -6.4 -25.4 -6.4 -13.0 0 -5.8 Z" fill="url(#petalBack)" opacity="1.0"/></g><g transform="translate(60,40) rotate(90.0)"><path d="M0 -5.8 C 6.4 -13.0 6.4 -25.4 0 -31.0 C -6.4 -25.4 -6.4 -13.0 0 -5.8 Z" fill="url(#petalBack)" opacity="1.0"/></g><g transform="translate(60,40) rotate(112.5)"><path d="M0 -5.8 C 6.4 -13.0 6.4 -25.4 0 -31.0 C -6.4 -25.4 -6.4 -13.0 0 -5.8 Z" fill="url(#petalBack)" opacity="1.0"/></g><g transform="translate(60,40) rotate(135.0)"><path d="M0 -5.8 C 6.4 -13.0 6.4 -25.4 0 -31.0 C -6.4 -25.4 -6.4 -13.0 0 -5.8 Z" fill="url(#petalBack)" opacity="1.0"/></g><g transform="translate(60,40) rotate(157.5)"><path d="M0 -5.8 C 6.4 -13.0 6.4 -25.4 0 -31.0 C -6.4 -25.4 -6.4 -13.0 0 -5.8 Z" fill="url(#petalBack)" opacity="1.0"/></g><g transform="translate(60,40) rotate(180.0)"><path d="M0 -5.8 C 6.4 -13.0 6.4 -25.4 0 -31.0 C -6.4 -25.4 -6.4 -13.0 0 -5.8 Z" fill="url(#petalBack)" opacity="1.0"/></g><g transform="translate(60,40) rotate(202.5)"><path d="M0 -5.8 C 6.4 -13.0 6.4 -25.4 0 -31.0 C -6.4 -25.4 -6.4 -13.0 0 -5.8 Z" fill="url(#petalBack)" opacity="1.0"/></g><g transform="translate(60,40) rotate(225.0)"><path d="M0 -5.8 C 6.4 -13.0 6.4 -25.4 0 -31.0 C -6.4 -25.4 -6.4 -13.0 0 -5.8 Z" fill="url(#petalBack)" opacity="1.0"/></g><g transform="translate(60,40) rotate(247.5)"><path d="M0 -5.8 C 6.4 -13.0 6.4 -25.4 0 -31.0 C -6.4 -25.4 -6.4 -13.0 0 -5.8 Z" fill="url(#petalBack)" opacity="1.0"/></g><g transform="translate(60,40) rotate(270.0)"><path d="M0 -5.8 C 6.4 -13.0 6.4 -25.4 0 -31.0 C -6.4 -25.4 -6.4 -13.0 0 -5.8 Z" fill="url(#petalBack)" opacity="1.0"/></g><g transform="translate(60,40) rotate(292.5)"><path d="M0 -5.8 C 6.4 -13.0 6.4 -25.4 0 -31.0 C -6.4 -25.4 -6.4 -13.0 0 -5.8 Z" fill="url(#petalBack)" opacity="1.0"/></g><g transform="translate(60,40) rotate(315.0)"><path d="M0 -5.8 C 6.4 -13.0 6.4 -25.4 0 -31.0 C -6.4 -25.4 -6.4 -13.0 0 -5.8 Z" fill="url(#petalBack)" opacity="1.0"/></g><g transform="translate(60,40) rotate(337.5)"><path d="M0 -5.8 C 6.4 -13.0 6.4 -25.4 0 -31.0 C -6.4 -25.4 -6.4 -13.0 0 -5.8 Z" fill="url(#petalBack)" opacity="1.0"/></g><g transform="translate(60,40) rotate(11.25)"><path d="M0 -5.4 C 6.0 -10.9 6.0 -21.3 0 -26.0 C -6.0 -21.3 -6.0 -10.9 0 -5.4 Z" fill="url(#petalFront)" opacity="1.0"/></g><g transform="translate(60,40) rotate(33.75)"><path d="M0 -5.4 C 6.0 -10.9 6.0 -21.3 0 -26.0 C -6.0 -21.3 -6.0 -10.9 0 -5.4 Z" fill="url(#petalFront)" opacity="1.0"/></g><g transform="translate(60,40) rotate(56.25)"><path d="M0 -5.4 C 6.0 -10.9 6.0 -21.3 0 -26.0 C -6.0 -21.3 -6.0 -10.9 0 -5.4 Z" fill="url(#petalFront)" opacity="1.0"/></g><g transform="translate(60,40) rotate(78.75)"><path d="M0 -5.4 C 6.0 -10.9 6.0 -21.3 0 -26.0 C -6.0 -21.3 -6.0 -10.9 0 -5.4 Z" fill="url(#petalFront)" opacity="1.0"/></g><g transform="translate(60,40) rotate(101.25)"><path d="M0 -5.4 C 6.0 -10.9 6.0 -21.3 0 -26.0 C -6.0 -21.3 -6.0 -10.9 0 -5.4 Z" fill="url(#petalFront)" opacity="1.0"/></g><g transform="translate(60,40) rotate(123.75)"><path d="M0 -5.4 C 6.0 -10.9 6.0 -21.3 0 -26.0 C -6.0 -21.3 -6.0 -10.9 0 -5.4 Z" fill="url(#petalFront)" opacity="1.0"/></g><g transform="translate(60,40) rotate(146.25)"><path d="M0 -5.4 C 6.0 -10.9 6.0 -21.3 0 -26.0 C -6.0 -21.3 -6.0 -10.9 0 -5.4 Z" fill="url(#petalFront)" opacity="1.0"/></g><g transform="translate(60,40) rotate(168.75)"><path d="M0 -5.4 C 6.0 -10.9 6.0 -21.3 0 -26.0 C -6.0 -21.3 -6.0 -10.9 0 -5.4 Z" fill="url(#petalFront)" opacity="1.0"/></g><g transform="translate(60,40) rotate(191.25)"><path d="M0 -5.4 C 6.0 -10.9 6.0 -21.3 0 -26.0 C -6.0 -21.3 -6.0 -10.9 0 -5.4 Z" fill="url(#petalFront)" opacity="1.0"/></g><g transform="translate(60,40) rotate(213.75)"><path d="M0 -5.4 C 6.0 -10.9 6.0 -21.3 0 -26.0 C -6.0 -21.3 -6.0 -10.9 0 -5.4 Z" fill="url(#petalFront)" opacity="1.0"/></g><g transform="translate(60,40) rotate(236.25)"><path d="M0 -5.4 C 6.0 -10.9 6.0 -21.3 0 -26.0 C -6.0 -21.3 -6.0 -10.9 0 -5.4 Z" fill="url(#petalFront)" opacity="1.0"/></g><g transform="translate(60,40) rotate(258.75)"><path d="M0 -5.4 C 6.0 -10.9 6.0 -21.3 0 -26.0 C -6.0 -21.3 -6.0 -10.9 0 -5.4 Z" fill="url(#petalFront)" opacity="1.0"/></g><g transform="translate(60,40) rotate(281.25)"><path d="M0 -5.4 C 6.0 -10.9 6.0 -21.3 0 -26.0 C -6.0 -21.3 -6.0 -10.9 0 -5.4 Z" fill="url(#petalFront)" opacity="1.0"/></g><g transform="translate(60,40) rotate(303.75)"><path d="M0 -5.4 C 6.0 -10.9 6.0 -21.3 0 -26.0 C -6.0 -21.3 -6.0 -10.9 0 -5.4 Z" fill="url(#petalFront)" opacity="1.0"/></g><g transform="translate(60,40) rotate(326.25)"><path d="M0 -5.4 C 6.0 -10.9 6.0 -21.3 0 -26.0 C -6.0 -21.3 -6.0 -10.9 0 -5.4 Z" fill="url(#petalFront)" opacity="1.0"/></g><g transform="translate(60,40) rotate(348.75)"><path d="M0 -5.4 C 6.0 -10.9 6.0 -21.3 0 -26.0 C -6.0 -21.3 -6.0 -10.9 0 -5.4 Z" fill="url(#petalFront)" opacity="1.0"/></g></g><circle cx="60" cy="40" r="13.5" fill="url(#seed)" stroke="#3C2410" stroke-width="1"/><circle cx="58.7" cy="41.2" r="0.9" fill="#7A4E24"/><circle cx="60.2" cy="37.5" r="0.9" fill="#7A4E24"/><circle cx="61.9" cy="42.5" r="0.9" fill="#7A4E24"/><circle cx="56.5" cy="39.4" r="0.9" fill="#7A4E24"/><circle cx="63.4" cy="37.8" r="0.9" fill="#7A4E24"/><circle cx="58.9" cy="44.3" r="0.9" fill="#7A4E24"/><circle cx="57.8" cy="35.8" r="0.9" fill="#7A4E24"/><circle cx="64.8" cy="41.7" r="0.9" fill="#7A4E24"/><circle cx="55.0" cy="42.1" r="0.9" fill="#7A4E24"/><circle cx="62.4" cy="34.8" r="0.9" fill="#7A4E24"/><circle cx="61.8" cy="45.7" r="0.9" fill="#7A4E24"/><circle cx="54.6" cy="36.9" r="0.9" fill="#7A4E24"/><circle cx="66.3" cy="38.6" r="0.9" fill="#7A4E24"/><circle cx="56.1" cy="45.5" r="0.9" fill="#7A4E24"/><circle cx="59.1" cy="33.1" r="0.9" fill="#7A4E24"/><circle cx="65.5" cy="44.6" r="0.9" fill="#7A4E24"/><circle cx="52.6" cy="40.3" r="0.9" fill="#7A4E24"/><circle cx="65.4" cy="34.6" r="0.9" fill="#7A4E24"/><circle cx="59.6" cy="47.8" r="0.9" fill="#7A4E24"/><circle cx="54.8" cy="33.8" r="0.9" fill="#7A4E24"/><circle cx="68.2" cy="41.1" r="0.9" fill="#7A4E24"/><circle cx="53.1" cy="44.8" r="0.9" fill="#7A4E24"/><circle cx="61.9" cy="31.6" r="0.9" fill="#7A4E24"/><circle cx="64.4" cy="47.6" r="0.9" fill="#7A4E24"/><circle cx="51.4" cy="37.3" r="0.9" fill="#7A4E24"/><circle cx="68.3" cy="36.2" r="0.9" fill="#7A4E24"/><circle cx="56.4" cy="48.6" r="0.9" fill="#7A4E24"/><circle cx="56.8" cy="31.0" r="0.9" fill="#7A4E24"/><circle cx="68.6" cy="44.5" r="0.9" fill="#7A4E24"/><circle cx="50.5" cy="42.5" r="0.9" fill="#7A4E24"/><circle cx="65.4" cy="31.6" r="0.9" fill="#7A4E24"/><circle cx="61.7" cy="50.0" r="0.9" fill="#7A4E24"/><circle cx="51.8" cy="33.7" r="0.9" fill="#7A4E24"/><circle cx="70.5" cy="39.1" r="0.9" fill="#7A4E24"/><circle cx="52.8" cy="47.8" r="0.9" fill="#7A4E24"/><circle cx="60.1" cy="29.2" r="0.9" fill="#7A4E24"/><circle cx="67.4" cy="48.1" r="0.9" fill="#7A4E24"/><circle cx="49.0" cy="39.0" r="0.9" fill="#7A4E24"/><circle cx="68.9" cy="33.2" r="0.9" fill="#7A4E24"/><circle cx="58.0" cy="51.2" r="0.9" fill="#7A4E24"/><circle cx="53.9" cy="30.3" r="0.9" fill="#7A4E24"/><circle cx="71.2" cy="43.1" r="0.9" fill="#7A4E24"/><circle cx="49.5" cy="45.4" r="0.9" fill="#7A4E24"/><circle cx="64.1" cy="28.8" r="0.9" fill="#7A4E24"/><circle cx="64.5" cy="51.2" r="0.9" fill="#7A4E24"/><ellipse cx="57" cy="36" rx="6" ry="4" fill="#A06A34" opacity="0.35"/></g></svg>