<svg xmlns="http://www.w3.org/2000/svg" viewBox="0 0 120 120" width="120" height="120"><style>.breathe{transform-box:fill-box;transform-origin:50% 92%;animation:pbr 4.6s ease-in-out infinite}@keyframes pbr{0%,100%{transform:scale(1)}50%{transform:scale(1.018)}}@media(prefers-reduced-motion:reduce){.breathe{animation:none}}</style><g class="breathe">
<defs>
  <linearGradient id="pot" x1="0" y1="0" x2="0" y2="1">
    <stop offset="0" stop-color="#E4A98C"/><stop offset="1" stop-color="#C67C5E"/>
  </linearGradient>
  <linearGradient id="potRim" x1="0" y1="0" x2="0" y2="1">
    <stop offset="0" stop-color="#EEB79C"/><stop offset="1" stop-color="#D08965"/>
  </linearGradient>
  <linearGradient id="leaf" x1="0" y1="0" x2="1" y2="0">
    <stop offset="0" stop-color="#43B18E"/><stop offset="1" stop-color="#158C6A"/>
  </linearGradient>
  <linearGradient id="leafDark" x1="0" y1="0" x2="1" y2="0">
    <stop offset="0" stop-color="#2E9E7C"/><stop offset="1" stop-color="#0F7357"/>
  </linearGradient>
  <radialGradient id="bloom" cx="0.5" cy="0.4" r="0.7">
    <stop offset="0" stop-color="#FBD36B"/><stop offset="1" stop-color="#F2B705"/>
  </radialGradient>
  <linearGradient id="petal" x1="0" y1="0" x2="0" y2="1">
    <stop offset="0" stop-color="#F0A98C"/><stop offset="1" stop-color="#E4886A"/>
  </linearGradient>
  <linearGradient id="gold" x1="0" y1="0" x2="0" y2="1">
    <stop offset="0" stop-color="#FCDD86"/><stop offset="0.5" stop-color="#F1BE4E"/><stop offset="1" stop-color="#DA9C25"/>
  </linearGradient>
  <linearGradient id="medGreen" x1="0" y1="0" x2="0" y2="1">
    <stop offset="0" stop-color="#2FA680"/><stop offset="1" stop-color="#12795C"/>
  </linearGradient>
  <linearGradient id="ribbon" x1="0" y1="0" x2="0" y2="1">
    <stop offset="0" stop-color="#E4886A"/><stop offset="1" stop-color="#C96A4C"/>
  </linearGradient>
  <filter id="soft" x="-30%" y="-30%" width="160%" height="160%">
    <feDropShadow dx="0" dy="2.5" stdDeviation="2.5" flood-color="#0C3B2C" flood-opacity="0.18"/>
  </filter>
</defs>
<ellipse cx="60" cy="83" rx="24" ry="5.5" fill="#5A4230"/><path d="M38 85 L82 85 L76.5 111 Q76 114.5 72.5 114.5 L47.5 114.5 Q44 114.5 43.5 111 Z" fill="url(#pot)"/><rect x="33" y="77" width="54" height="11" rx="5.5" fill="url(#potRim)"/><path d="M60 80 Q57 58 60 42" stroke="url(#leafDark)" stroke-width="3.4" fill="none" stroke-linecap="round"/><g transform="translate(60,74) rotate(-56) scale(0.82)" filter="url(#soft)"><path d="M0 0 C -7 -7 -7 -20 0 -27 C 7 -20 7 -7 0 0 Z" fill="url(#leafDark)"/><path d="M0 -3 L0 -22" stroke="#0E7256" stroke-width="1.6" stroke-linecap="round" opacity="0.55"/></g><g transform="translate(60,74) rotate(56) scale(0.82)" filter="url(#soft)"><path d="M0 0 C -7 -7 -7 -20 0 -27 C 7 -20 7 -7 0 0 Z" fill="url(#leafDark)"/><path d="M0 -3 L0 -22" stroke="#0E7256" stroke-width="1.6" stroke-linecap="round" opacity="0.55"/></g><g transform="translate(60,65) rotate(-42) scale(0.74)" filter="url(#soft)"><path d="M0 0 C -7 -7 -7 -20 0 -27 C 7 -20 7 -7 0 0 Z" fill="url(#leaf)"/><path d="M0 -3 L0 -22" stroke="#0E7256" stroke-width="1.6" stroke-linecap="round" opacity="0.55"/></g><g transform="translate(60,65) rotate(42) scale(0.74)" filter="url(#soft)"><path d="M0 0 C -7 -7 -7 -20 0 -27 C 7 -20 7 -7 0 0 Z" fill="url(#leaf)"/><path d="M0 -3 L0 -22" stroke="#0E7256" stroke-width="1.6" stroke-linecap="round" opacity="0.55"/></g><g transform="translate(60,55) rotate(-28) scale(0.66)" filter="url(#soft)"><path d="M0 0 C -7 -7 -7 -20 0 -27 C 7 -20 7 -7 0 0 Z" fill="url(#leaf)"/><path d="M0 -3 L0 -22" stroke="#0E7256" stroke-width="1.6" stroke-linecap="round" opacity="0.55"/></g><g transform="translate(60,55) rotate(28) scale(0.66)" filter="url(#soft)"><path d="M0 0 C -7 -7 -7 -20 0 -27 C 7 -20 7 -7 0 0 Z" fill="url(#leaf)"/><path d="M0 -3 L0 -22" stroke="#0E7256" stroke-width="1.6" stroke-linecap="round" opacity="0.55"/></g><g transform="translate(60,46) rotate(-14) scale(0.56)" filter="url(#soft)"><path d="M0 0 C -7 -7 -7 -20 0 -27 C 7 -20 7 -7 0 0 Z" fill="url(#leaf)"/><path d="M0 -3 L0 -22" stroke="#0E7256" stroke-width="1.6" stroke-linecap="round" opacity="0.55"/></g><g transform="translate(60,46) rotate(14) scale(0.56)" filter="url(#soft)"><path d="M0 0 C -7 -7 -7 -20 0 -27 C 7 -20 7 -7 0 0 Z" fill="url(#leaf)"/><path d="M0 -3 L0 -22" stroke="#0E7256" stroke-width="1.6" stroke-linecap="round" opacity="0.55"/></g><circle cx="60" cy="41" r="4.5" fill="url(#petal)"/></g></svg>