<svg xmlns="http://www.w3.org/2000/svg" xmlns:xlink="http://www.w3.org/1999/xlink" width="512" zoomAndPan="magnify" viewBox="0 0 384 383.999986" height="512" preserveAspectRatio="xMidYMid meet" version="1.0"><defs><clipPath id="9a470fdd1d"><path d="M 1 80 L 384 80 L 384 332.398438 L 1 332.398438 Z M 1 80 " clip-rule="nonzero"/></clipPath></defs><g clip-path="url(#9a470fdd1d)"><path fill="#438262" d="M 381.261719 139.730469 C 380.554688 138.269531 379.707031 136.875 378.875 135.523438 C 377.363281 133.046875 375.941406 130.703125 375.285156 128.007812 C 374.3125 123.980469 375.683594 119.894531 377.019531 115.953125 L 377.363281 114.929688 C 378.582031 111.269531 379.804688 107.007812 378.929688 102.660156 C 378.246094 99.277344 376.507812 96.085938 374.023438 93.683594 C 371.796875 91.523438 367.667969 89.5 364.40625 89.996094 C 362.65625 90.261719 361.277344 91.234375 360.421875 92.816406 C 358.953125 95.519531 360.085938 98.046875 361.082031 100.273438 C 361.429688 101.042969 361.753906 101.777344 361.976562 102.492188 C 363.398438 107.089844 362.195312 111.464844 360.703125 115.511719 L 360.109375 117.128906 C 358.582031 121.292969 357.140625 125.214844 354.84375 128.972656 C 352.625 132.613281 349.921875 136.210938 346.820312 139.65625 C 335.867188 151.835938 321.585938 160.789062 307.773438 169.453125 C 305.207031 171.058594 302.664062 172.652344 300.144531 174.269531 C 294.902344 177.617188 289.671875 180.976562 284.429688 184.328125 L 283.007812 184.070312 C 279.003906 183.355469 274.867188 182.621094 270.738281 182.152344 C 266.902344 181.71875 263.15625 181.382812 259.585938 181.859375 C 259.65625 181.796875 259.734375 181.738281 259.816406 181.664062 C 260.824219 180.84375 262.203125 179.722656 261.636719 177.890625 C 260.867188 175.375 257.863281 176.117188 256.511719 176.453125 C 250.816406 177.867188 245.292969 180.429688 239.621094 184.28125 C 233.910156 188.160156 228.988281 191.140625 222.597656 191.050781 C 219.894531 191.027344 217.144531 190.894531 214.484375 190.761719 C 210.390625 190.566406 206.148438 190.363281 201.941406 190.53125 C 200.539062 190.582031 199.132812 190.742188 197.78125 190.894531 C 196.226562 191.070312 194.625 191.246094 193.050781 191.265625 C 190.761719 191.289062 188.660156 190.636719 186.441406 189.9375 C 185.53125 189.65625 184.59375 189.355469 183.628906 189.109375 C 178.140625 187.695312 172.070312 187.136719 165.582031 187.445312 C 161.746094 187.632812 157.894531 188.082031 154.15625 188.515625 C 151.105469 188.867188 147.941406 189.242188 144.839844 189.460938 C 137.425781 189.984375 130.511719 189.355469 123.707031 187.570312 C 117.246094 185.871094 111.042969 183.453125 105.03125 181.109375 C 99.171875 178.820312 93.304688 176.726562 87.097656 174.710938 C 80.355469 172.519531 75.59375 168.964844 72.550781 163.875 C 71.386719 161.921875 69.9375 158.898438 69.636719 155.558594 C 69.546875 154.53125 69.707031 153.816406 70.148438 153.375 C 71.058594 152.445312 73.269531 152.597656 75.042969 152.722656 L 75.148438 152.730469 C 80.265625 153.09375 84.890625 150.007812 86.390625 145.253906 C 87.160156 142.8125 87.0625 140.171875 86.96875 137.609375 C 86.835938 133.976562 86.703125 130.554688 88.910156 127.867188 C 89.113281 127.621094 89.328125 127.390625 89.53125 127.167969 C 90.519531 126.089844 91.632812 124.871094 90.855469 122.707031 C 90.238281 120.984375 88.804688 119.949219 87.542969 119.039062 C 86.886719 118.570312 86.269531 118.121094 85.773438 117.605469 C 82 113.699219 80.746094 107.867188 79.640625 102.722656 C 78.554688 97.695312 77.324219 91.992188 73.746094 87.644531 C 70.714844 83.96875 65.933594 81.476562 60.292969 80.636719 C 53.753906 79.664062 46.886719 80.785156 41.636719 81.875 C 35.429688 83.15625 30.835938 85.003906 27.167969 87.679688 C 26.285156 88.324219 25.460938 89.023438 24.691406 89.792969 C 24.535156 89.246094 24.285156 88.695312 23.949219 88.175781 C 22.484375 85.886719 19.503906 84.464844 16.730469 84.710938 C 9.429688 85.347656 5.335938 93.699219 3.550781 98.613281 C 2.074219 102.671875 0.0507812 110.359375 3.03125 116.332031 C 4.214844 118.710938 6.222656 120.320312 8.679688 120.875 C 10.851562 121.371094 13.175781 120.964844 15.199219 119.78125 C 16.101562 125.773438 18.84375 131.507812 23.359375 136.0625 C 25.304688 138.015625 27.566406 139.703125 29.75 141.328125 C 33.894531 144.414062 37.800781 147.328125 39.816406 151.976562 C 42.105469 157.253906 41.980469 163.742188 39.425781 171.8125 C 38.992188 173.179688 38.5 174.59375 38.03125 175.964844 C 35.855469 182.222656 33.609375 188.699219 34.972656 195.496094 C 35.660156 198.960938 37.269531 202.320312 39.65625 205.351562 C 40.601562 210.769531 43.085938 216.550781 47.160156 222.871094 C 50.835938 228.570312 55.265625 233.800781 59.550781 238.867188 C 60.816406 240.359375 62.078125 241.855469 63.324219 243.355469 C 69.105469 250.347656 75.132812 258.25 81.761719 267.511719 C 83.324219 269.695312 84.96875 271.886719 86.558594 274 C 90.671875 279.453125 94.914062 285.089844 98.078125 291.1875 C 99.4375 293.804688 100.578125 296.597656 101.671875 299.292969 C 102.308594 300.859375 102.972656 302.476562 103.671875 304.046875 C 105.4375 308.035156 107.570312 311.730469 110 315.015625 C 115.363281 322.28125 122.019531 327.285156 129.796875 329.898438 C 135.171875 331.703125 140.871094 332.585938 146.597656 332.585938 C 157.433594 332.585938 168.375 329.433594 177.433594 323.394531 C 180.589844 321.292969 183.566406 318.789062 186.554688 315.722656 C 188.15625 314.078125 189.894531 312.496094 191.574219 310.96875 C 192.964844 309.714844 194.386719 308.40625 195.757812 307.070312 C 201.101562 301.804688 206.566406 295.609375 212.9375 287.582031 C 216.179688 283.5 219.390625 279.292969 222.492188 275.210938 C 229.640625 265.824219 237.039062 256.117188 245.277344 247.414062 C 248.386719 244.125 251.535156 241.078125 254.617188 238.363281 C 255.058594 237.972656 255.511719 237.585938 255.972656 237.195312 C 258.894531 234.703125 261.917969 232.125 263.03125 228.242188 C 263.03125 228.234375 263.042969 228.214844 263.042969 228.207031 C 264.261719 227.882812 265.453125 227.472656 266.550781 227.09375 C 267.222656 226.863281 267.875 226.644531 268.484375 226.449219 C 277.324219 223.710938 285.640625 220.296875 293.214844 216.304688 C 301.523438 211.910156 309.601562 206.554688 317.203125 200.367188 C 323.636719 195.136719 329.398438 189.328125 335.726562 182.832031 C 341.941406 176.453125 347.613281 170.8125 354.214844 166.375 C 357.628906 164.085938 361.082031 162.285156 364.496094 161.019531 C 366.023438 160.453125 367.632812 159.984375 369.195312 159.542969 C 371.113281 158.996094 373.09375 158.421875 374.996094 157.644531 C 378.707031 156.125 381.101562 154.109375 382.339844 151.484375 C 383.851562 148.265625 383.488281 144.308594 381.261719 139.730469 Z M 257.78125 226.527344 C 256.269531 226.40625 254.796875 225.449219 254.28125 224.25 C 253.929688 223.417969 254.078125 222.578125 254.742188 221.765625 C 255.421875 220.925781 256.246094 220.714844 256.890625 220.714844 C 256.996094 220.714844 257.09375 220.722656 257.183594 220.730469 C 258.480469 220.855469 259.796875 221.757812 260.453125 222.976562 C 261.015625 224.035156 261.175781 225.125 261.054688 226.183594 C 259.957031 226.449219 258.851562 226.609375 257.78125 226.527344 Z M 263.421875 225.53125 C 263.402344 225.53125 263.394531 225.539062 263.378906 225.539062 C 263.316406 223.132812 262.253906 220.941406 260.371094 219.582031 C 258.949219 218.546875 257.023438 218.183594 255.34375 218.644531 C 253.875 219.042969 252.726562 220.015625 252.125 221.386719 C 251.605469 222.585938 251.597656 223.859375 252.109375 225.070312 C 252.734375 226.554688 254.105469 227.800781 255.757812 228.402344 C 257.164062 228.914062 258.691406 228.984375 260.222656 228.800781 C 259.242188 230.761719 257.605469 232.503906 256.332031 233.667969 L 255.378906 234.542969 C 249.667969 239.777344 244.277344 244.71875 239.222656 250.445312 C 233.875 256.488281 228.945312 262.800781 224.402344 268.714844 C 223.09375 270.417969 221.785156 272.132812 220.484375 273.839844 C 212.390625 284.464844 204.019531 295.441406 194.414062 304.992188 C 193.023438 306.371094 191.53125 307.726562 190.101562 309.023438 C 188.625 310.359375 187.105469 311.738281 185.664062 313.167969 C 182.957031 315.863281 180.28125 318.453125 177.214844 320.628906 C 171.035156 325.003906 163.839844 328.007812 156.390625 329.324219 C 148.164062 330.785156 139.546875 330.421875 132.121094 328.300781 C 124.300781 326.0625 117.644531 321.425781 112.359375 314.496094 C 108.671875 309.667969 106.394531 304.367188 103.980469 298.746094 C 103 296.472656 101.992188 294.125 100.886719 291.824219 C 97.777344 285.363281 93.417969 279.558594 89.210938 273.945312 C 88.300781 272.734375 87.390625 271.523438 86.5 270.304688 C 84.976562 268.246094 83.476562 266.175781 81.972656 264.101562 C 78.324219 259.078125 74.550781 253.890625 70.644531 248.914062 C 68.027344 245.582031 65.261719 242.296875 62.582031 239.113281 C 59.914062 235.941406 57.15625 232.652344 54.558594 229.339844 C 50.394531 224.027344 45.339844 216.9375 42.890625 208.835938 C 43.605469 209.488281 44.359375 210.125 45.152344 210.726562 C 51.359375 215.453125 58.789062 217.363281 65.234375 218.601562 C 66.1875 218.785156 67.144531 218.964844 68.089844 219.140625 C 71.296875 219.742188 74.609375 220.351562 77.820312 221.171875 C 81.363281 222.082031 85.050781 222.683594 89.078125 223.019531 C 98.136719 223.769531 107.332031 223.460938 116.222656 223.160156 C 120.261719 223.027344 124.371094 222.886719 128.488281 222.851562 C 133.800781 232.363281 139.5625 241.542969 144.007812 248.519531 C 146.976562 253.167969 149.710938 257.339844 152.371094 261.28125 C 153.519531 262.984375 154.816406 264.710938 156.886719 265.371094 C 157.441406 265.550781 157.992188 265.628906 158.53125 265.628906 C 160.421875 265.628906 162.207031 264.683594 163.78125 263.746094 C 169.710938 260.230469 175.332031 256.058594 180.765625 252.027344 C 183.1875 250.234375 185.691406 248.375 188.183594 246.609375 C 196.199219 240.917969 204.496094 235.367188 212.847656 230.117188 C 220.8125 225.105469 229.136719 220.183594 238.304688 215.066406 C 239.371094 214.464844 240.449219 213.871094 241.519531 213.28125 C 241.539062 213.269531 241.554688 213.246094 241.574219 213.234375 C 247.707031 213.695312 254.007812 214.03125 260.308594 213.4375 C 268.027344 212.707031 276.050781 210.558594 284.183594 207.058594 C 284.722656 206.828125 285.269531 206.597656 285.828125 206.359375 C 288.972656 205.035156 292.226562 203.664062 294.875 201.65625 C 297.023438 200.023438 298.542969 197.097656 296.8125 194.535156 C 295.257812 192.246094 292.171875 192.015625 289.917969 191.847656 L 278.542969 190.894531 C 282.476562 188.390625 286.417969 185.890625 290.371094 183.398438 C 301.238281 176.53125 312.472656 169.425781 323.335938 162.152344 C 336.238281 153.515625 350.546875 142.566406 358.820312 126.867188 C 360.164062 124.324219 361.109375 121.609375 362.027344 118.984375 C 362.445312 117.800781 362.859375 116.609375 363.3125 115.441406 C 364.953125 111.15625 365.398438 107.320312 364.664062 103.695312 C 364.425781 102.527344 363.910156 101.351562 363.40625 100.214844 C 362.4375 97.996094 361.515625 95.898438 362.523438 94.027344 C 363.683594 91.871094 366.757812 92.144531 368.402344 92.65625 C 372.085938 93.789062 374.660156 97.359375 375.84375 100.328125 C 377.160156 103.625 377.160156 107.25 375.84375 111.71875 C 375.515625 112.824219 375.136719 113.949219 374.765625 115.042969 C 373.890625 117.625 372.980469 120.292969 372.6875 123.09375 C 372.34375 126.402344 373.09375 129.75 375.003906 133.328125 C 375.597656 134.433594 376.257812 135.53125 376.894531 136.582031 C 378.574219 139.367188 380.164062 141.992188 380.714844 145.058594 C 381.367188 148.753906 379.933594 152.039062 376.78125 154.0625 C 374.359375 155.621094 371.46875 156.449219 368.667969 157.246094 L 367.6875 157.527344 C 364.027344 158.589844 360.871094 159.828125 358.0625 161.292969 C 348.109375 166.492188 340.234375 174.648438 332.617188 182.53125 C 330.132812 185.105469 327.558594 187.773438 324.972656 190.265625 C 312.261719 202.523438 297.953125 212.140625 282.421875 218.832031 C 278.535156 220.511719 274.417969 222.066406 270.175781 223.453125 C 268.351562 224.054688 266.417969 224.644531 264.421875 225.21875 C 264.09375 225.328125 263.757812 225.425781 263.421875 225.53125 Z M 43.289062 155.40625 C 42.21875 150.238281 39.265625 145.90625 34 141.789062 C 33.117188 141.089844 32.207031 140.417969 31.304688 139.746094 C 29.316406 138.269531 27.265625 136.75 25.46875 135.027344 C 22.976562 132.632812 20.917969 129.6875 19.515625 126.535156 C 18.328125 123.863281 17.585938 121.035156 17.296875 118.179688 C 22.269531 113.460938 23.695312 104.96875 23.332031 98.179688 L 23.289062 97.90625 L 23.199219 97.386719 C 23.03125 97.015625 22.667969 96.730469 22.34375 96.632812 C 22.140625 96.570312 21.933594 96.5625 21.75 96.617188 L 21.324219 96.898438 L 20.910156 97.3125 C 16.492188 103.148438 14.511719 110.171875 14.898438 117.042969 C 12.609375 118.863281 9.367188 119.648438 6.9375 117.800781 C 4.789062 116.175781 4.136719 113.144531 3.957031 110.890625 C 3.515625 105.128906 5.441406 98.410156 9.121094 92.914062 C 11.320312 89.625 13.628906 87.742188 16.171875 87.160156 C 17.753906 86.796875 20.089844 86.929688 21.429688 88.484375 C 22.554688 89.792969 22.773438 91.550781 21.980469 92.992188 L 21.925781 93.550781 L 21.882812 93.921875 C 21.972656 94.203125 22.175781 94.46875 22.464844 94.644531 C 22.660156 94.769531 22.863281 94.832031 23.066406 94.839844 L 23.472656 94.75 L 24.019531 94.34375 C 28.863281 87.34375 38.320312 83.535156 52.941406 82.6875 C 61 82.21875 67.089844 83.984375 71.03125 87.953125 C 74.9375 91.886719 76.148438 97.554688 77.332031 103.03125 L 77.402344 103.34375 C 78.5625 108.722656 79.765625 113.503906 82.777344 117.5 C 83.394531 118.324219 84.078125 119.074219 84.785156 119.726562 C 85.261719 120.167969 85.808594 120.539062 86.339844 120.894531 C 87.003906 121.34375 87.628906 121.769531 88.0625 122.289062 C 89.246094 123.714844 88.691406 124.5 87.320312 126.152344 C 86.710938 126.878906 86.082031 127.636719 85.695312 128.539062 C 84.464844 131.386719 84.570312 134.390625 84.679688 137.296875 C 84.785156 140.277344 84.890625 143.097656 83.625 145.648438 C 82.496094 147.949219 80.195312 149.714844 77.625 150.265625 C 76.589844 150.484375 75.53125 150.386719 74.398438 150.28125 C 73.222656 150.175781 72.011719 150.058594 70.765625 150.308594 C 69.371094 150.589844 68.371094 151.308594 67.789062 152.4375 C 66.453125 155.054688 67.832031 159.277344 69.238281 162.355469 C 71.3125 166.933594 74.734375 170.882812 78.851562 173.480469 C 82.300781 175.65625 86.242188 176.867188 90.050781 178.042969 C 91.617188 178.519531 93.234375 179.023438 94.761719 179.570312 C 97.847656 180.683594 100.964844 181.894531 103.972656 183.070312 C 106.800781 184.175781 109.726562 185.316406 112.625 186.375 C 117.421875 188.117188 123.777344 190.257812 130.476562 191.308594 C 137.398438 192.394531 144.28125 191.925781 150.105469 191.324219 C 151.734375 191.15625 153.359375 190.972656 154.984375 190.777344 C 160.101562 190.1875 165.386719 189.566406 170.601562 189.671875 C 173.777344 189.734375 176.851562 190.035156 179.742188 190.558594 C 181.710938 190.917969 183.558594 191.484375 185.511719 192.09375 C 186.644531 192.449219 187.8125 192.800781 188.996094 193.121094 C 191.550781 193.792969 194.226562 193.597656 196.96875 193.316406 C 200.554688 192.945312 203.597656 192.765625 206.546875 192.75 C 209.90625 192.730469 213.328125 192.828125 216.710938 193.03125 C 217.277344 193.066406 217.835938 193.101562 218.398438 193.148438 C 220.910156 193.324219 223.5 193.5 226.078125 193.226562 C 231.640625 192.632812 236.148438 189.566406 240.511719 186.597656 L 241.308594 186.058594 C 244.199219 184.105469 246.683594 182.664062 249.128906 181.542969 C 250.640625 180.84375 252.1875 180.234375 253.726562 179.722656 C 254.042969 179.617188 254.398438 179.484375 254.769531 179.339844 C 255.863281 178.925781 257.128906 178.457031 258.003906 178.484375 L 258.101562 178.484375 L 258.179688 178.464844 L 258.800781 179.28125 C 258.773438 179.296875 258.753906 179.324219 258.726562 179.339844 L 258.621094 179.4375 C 258.445312 179.605469 258.25 179.757812 258.058594 179.90625 C 257.816406 180.09375 257.589844 180.277344 257.367188 180.480469 C 256.847656 180.976562 256.28125 181.640625 256.128906 182.578125 L 255.960938 183.175781 L 256.140625 183.558594 C 256.199219 183.902344 256.421875 184.230469 256.730469 184.433594 C 256.976562 184.589844 257.253906 184.660156 257.519531 184.636719 L 257.695312 184.777344 C 252.761719 185.800781 248.113281 187.480469 243.914062 189.769531 C 242.113281 190.75 240.371094 191.863281 238.691406 192.945312 C 237.066406 193.988281 235.378906 195.066406 233.671875 196 C 230.011719 198.007812 225.914062 199.253906 220.75 199.925781 C 210.25 201.285156 199.246094 200.613281 189.859375 199.785156 C 184.71875 199.324219 179.75 198.644531 175.117188 197.761719 C 174.28125 197.601562 173.441406 197.433594 172.601562 197.257812 C 169.171875 196.558594 165.644531 195.84375 162.03125 195.84375 C 161.792969 195.84375 161.5625 195.84375 161.324219 195.851562 C 157.671875 195.949219 154.058594 196.707031 150.566406 197.449219 C 149.417969 197.691406 148.277344 197.9375 147.136719 198.148438 C 141.957031 199.140625 136.769531 199.554688 131.707031 199.367188 C 121.410156 199.007812 111.378906 196.417969 102.789062 194.03125 C 97.457031 192.546875 93.101562 191.15625 89.0625 189.648438 C 86.109375 188.550781 83.210938 187.207031 80.410156 185.910156 C 78.863281 185.191406 77.261719 184.449219 75.664062 183.761719 C 69.875 181.242188 62.195312 179.226562 55.902344 182.179688 C 54.832031 182.039062 53.753906 182.039062 52.710938 182.1875 C 44.234375 183.414062 39.496094 191.757812 39.195312 199.367188 C 39.179688 199.773438 39.171875 200.183594 39.179688 200.597656 C 38.101562 198.566406 37.394531 196.433594 37.085938 194.261719 C 36.234375 188.320312 38.269531 182.496094 40.230469 176.867188 C 40.714844 175.480469 41.21875 174.039062 41.664062 172.632812 C 43.800781 166.023438 44.3125 160.382812 43.289062 155.40625 Z M 20.980469 101.574219 C 20.8125 105.320312 20.015625 110.582031 17.171875 114.566406 C 17.25 112.082031 17.675781 109.597656 18.453125 107.1875 C 19.082031 105.25 19.921875 103.367188 20.980469 101.574219 Z M 258.632812 184.40625 C 260.140625 184.085938 261.722656 183.945312 263.296875 183.929688 C 261.722656 184.097656 260.179688 184.328125 258.65625 184.609375 Z M 272.003906 185.085938 C 272.039062 184.917969 272.039062 184.742188 271.984375 184.566406 C 275.246094 184.953125 278.515625 185.492188 281.742188 186.050781 C 279.515625 187.480469 277.289062 188.90625 275.0625 190.335938 C 274.957031 190.40625 274.859375 190.496094 274.789062 190.59375 L 265.621094 189.824219 L 271.296875 185.925781 Z M 151.714844 219.660156 C 151.398438 219.253906 151.203125 218.769531 151.132812 218.210938 C 150.902344 216.472656 151.910156 214.394531 153.015625 213.101562 C 153.625 212.394531 154.171875 211.929688 154.695312 211.671875 C 155.089844 211.476562 155.445312 211.378906 155.753906 211.378906 C 156.046875 211.378906 156.292969 211.46875 156.496094 211.636719 C 157.089844 212.121094 157.378906 213.28125 157.132812 214.21875 C 156.65625 216.054688 155.207031 217.441406 154.085938 218.28125 C 153.339844 218.839844 152.546875 219.300781 151.714844 219.660156 Z M 140.535156 223.125 C 142.648438 223.257812 147.199219 223.53125 151.371094 222.304688 C 152.917969 223.363281 154.976562 223.804688 157.546875 223.601562 C 167.191406 222.871094 176.628906 221.71875 183.78125 220.792969 C 192.601562 219.652344 201.519531 218.292969 210.285156 216.753906 C 214.597656 215.992188 218.957031 215.179688 223.25 214.332031 C 223.90625 214.199219 224.550781 214.066406 225.195312 213.933594 C 228.667969 213.210938 231.957031 212.527344 235.414062 212.777344 C 236.003906 212.820312 236.589844 212.863281 237.179688 212.910156 C 230.09375 216.789062 222.808594 221.050781 215.015625 225.855469 C 206.75 230.964844 198.53125 236.367188 190.566406 241.90625 C 186.695312 244.601562 182.710938 247.464844 178.726562 250.402344 L 177.425781 251.355469 C 174.015625 253.875 170.488281 256.472656 166.910156 258.851562 L 166.308594 259.246094 C 164.546875 260.421875 162.726562 261.632812 160.855469 262.542969 C 159.617188 263.144531 158.644531 263.367188 157.796875 263.242188 C 157.054688 263.128906 156.339844 262.675781 155.613281 261.863281 C 155.046875 261.226562 154.578125 260.519531 154.074219 259.761719 L 153.84375 259.414062 C 153.164062 258.398438 152.484375 257.382812 151.8125 256.359375 C 150.417969 254.253906 149.039062 252.140625 147.675781 250.03125 C 142.664062 242.269531 137.546875 233.960938 132.03125 224.621094 L 131.742188 224.132812 C 131.492188 223.710938 131.238281 223.285156 130.988281 222.859375 C 134.179688 222.859375 137.371094 222.929688 140.535156 223.125 Z M 56.476562 184.644531 C 56.5 184.625 56.527344 184.617188 56.554688 184.601562 C 57.375 184.75 58.179688 185.015625 58.941406 185.386719 C 61.953125 186.863281 64.792969 190.328125 63.898438 194.445312 C 63.09375 198.148438 59.480469 200.730469 55.996094 200.085938 C 52.550781 199.449219 50.640625 195.683594 50.84375 192.554688 C 51.058594 189.433594 53.214844 186.402344 56.476562 184.644531 Z M 48.625 186.289062 C 49.777344 185.554688 50.996094 185.042969 52.222656 184.742188 C 49.703125 187.109375 48.316406 190.644531 48.589844 194.003906 C 48.828125 196.984375 50.332031 199.519531 52.808594 201.144531 C 55.476562 202.894531 58.773438 202.941406 61.636719 201.269531 C 64.792969 199.414062 66.675781 195.957031 66.425781 192.457031 C 66.214844 189.574219 64.765625 186.90625 62.324219 184.945312 C 61.566406 184.335938 60.742188 183.8125 59.878906 183.398438 C 63.332031 182.628906 66.867188 183.175781 69.503906 183.902344 C 72.691406 184.777344 75.761719 186.234375 78.722656 187.640625 C 79.84375 188.171875 80.957031 188.710938 82.089844 189.214844 C 85.613281 190.785156 89.433594 192.246094 93.761719 193.667969 C 110.40625 199.128906 128.214844 203.777344 145.714844 200.828125 C 147.5 200.527344 149.292969 200.15625 151.035156 199.800781 C 153.625 199.273438 156.292969 198.714844 158.945312 198.398438 C 163.480469 197.847656 167.785156 198.601562 172.53125 199.5625 C 180.863281 201.25 189.800781 202.304688 199.089844 202.691406 C 208.667969 203.089844 217.277344 203.265625 225.648438 201.515625 C 229.339844 200.738281 232.824219 199.378906 236.296875 197.335938 C 237.605469 196.566406 238.894531 195.746094 240.140625 194.941406 C 241.953125 193.773438 243.835938 192.570312 245.761719 191.554688 C 252.027344 188.257812 259.285156 186.351562 266.949219 185.96875 L 261.820312 189.488281 L 261.078125 190.335938 C 261.042969 190.496094 261.042969 190.671875 261.089844 190.839844 C 261.203125 191.273438 261.554688 191.589844 261.929688 191.734375 L 262.289062 191.839844 L 262.660156 191.847656 L 286.285156 193.835938 C 286.664062 193.871094 287.132812 193.890625 287.671875 193.914062 C 289.980469 194.023438 293.84375 194.191406 294.957031 195.726562 C 295.28125 196.179688 295.34375 196.761719 295.132812 197.511719 C 294.488281 199.847656 291.09375 201.339844 288.628906 202.425781 C 288.105469 202.65625 287.601562 202.878906 287.167969 203.089844 C 279.667969 206.679688 272.800781 209.027344 266.171875 210.265625 C 259.453125 211.53125 251.921875 211.832031 243.171875 211.183594 C 242.007812 211.097656 240.796875 210.964844 239.636719 210.839844 C 237.375 210.59375 235.035156 210.335938 232.699219 210.390625 C 230.074219 210.441406 227.484375 211.015625 224.984375 211.566406 C 224.199219 211.742188 223.410156 211.910156 222.625 212.070312 C 214.960938 213.589844 207.15625 214.976562 199.441406 216.1875 C 191.769531 217.398438 183.976562 218.46875 176.269531 219.378906 C 172.449219 219.828125 168.597656 220.246094 164.824219 220.617188 C 162.914062 220.800781 160.996094 220.976562 159.078125 221.15625 L 158.554688 221.199219 C 157.054688 221.339844 155.613281 221.472656 154.289062 221.15625 C 156.328125 220.066406 158.078125 218.441406 159.105469 216.019531 C 159.730469 214.554688 159.765625 212.882812 159.191406 211.546875 C 158.742188 210.488281 157.9375 209.710938 156.878906 209.304688 C 153.632812 208.066406 150.859375 211.46875 149.734375 213.667969 C 148.488281 216.117188 148.4375 218.539062 149.578125 220.414062 C 145.980469 221.339844 141.933594 221.039062 137.972656 220.75 C 136.265625 220.617188 134.648438 220.5 133.074219 220.472656 C 127.179688 220.378906 121.207031 220.605469 115.417969 220.820312 C 106.445312 221.15625 97.167969 221.507812 88.070312 220.652344 C 83.589844 220.226562 79.101562 219.226562 74.753906 218.265625 C 72.355469 217.734375 69.875 217.179688 67.417969 216.726562 C 60.488281 215.453125 53.222656 213.847656 47.1875 209.496094 C 45.179688 208.046875 43.429688 206.429688 41.980469 204.699219 C 40.992188 198.097656 42.238281 190.34375 48.625 186.289062 Z M 48.625 186.289062 " fill-opacity="1" fill-rule="nonzero"/></g></svg>