<svg xmlns="http://www.w3.org/2000/svg" viewBox="0 0 120 120" width="120" height="120">
<defs>
  <linearGradient id="pot" x1="0" y1="0" x2="0" y2="1">
    <stop offset="0" stop-color="#E4A98C"/><stop offset="1" stop-color="#C67C5E"/>
  </linearGradient>
  <linearGradient id="potRim" x1="0" y1="0" x2="0" y2="1">
    <stop offset="0" stop-color="#EEB79C"/><stop offset="1" stop-color="#D08965"/>
  </linearGradient>
  <linearGradient id="leaf" x1="0" y1="0" x2="1" y2="0">
    <stop offset="0" stop-color="#43B18E"/><stop offset="1" stop-color="#158C6A"/>
  </linearGradient>
  <linearGradient id="leafDark" x1="0" y1="0" x2="1" y2="0">
    <stop offset="0" stop-color="#2E9E7C"/><stop offset="1" stop-color="#0F7357"/>
  </linearGradient>
  <radialGradient id="bloom" cx="0.5" cy="0.4" r="0.7">
    <stop offset="0" stop-color="#FBD36B"/><stop offset="1" stop-color="#F2B705"/>
  </radialGradient>
  <linearGradient id="petal" x1="0" y1="0" x2="0" y2="1">
    <stop offset="0" stop-color="#F0A98C"/><stop offset="1" stop-color="#E4886A"/>
  </linearGradient>
  <linearGradient id="gold" x1="0" y1="0" x2="0" y2="1">
    <stop offset="0" stop-color="#FCDD86"/><stop offset="0.5" stop-color="#F1BE4E"/><stop offset="1" stop-color="#DA9C25"/>
  </linearGradient>
  <linearGradient id="medGreen" x1="0" y1="0" x2="0" y2="1">
    <stop offset="0" stop-color="#2FA680"/><stop offset="1" stop-color="#12795C"/>
  </linearGradient>
  <linearGradient id="ribbon" x1="0" y1="0" x2="0" y2="1">
    <stop offset="0" stop-color="#E4886A"/><stop offset="1" stop-color="#C96A4C"/>
  </linearGradient>
  <filter id="soft" x="-30%" y="-30%" width="160%" height="160%">
    <feDropShadow dx="0" dy="2.5" stdDeviation="2.5" flood-color="#0C3B2C" flood-opacity="0.18"/>
  </filter>
</defs>
<rect x="12" y="12" width="96" height="96" rx="26" fill="#DCEFE8"/><g fill="none" stroke="#147D64" stroke-width="6" stroke-linecap="round" stroke-linejoin="round"><circle cx="52" cy="42" r="8" fill="#147D64" stroke="none"/><path d="M52 52 Q56 66 50 78"/><path d="M52 58 Q66 56 74 46"/><path d="M52 58 Q44 62 40 72"/><path d="M50 78 L44 92"/><path d="M50 78 L58 90"/></g><path d="M78 40 Q84 45 81 51" stroke="#43B18E" stroke-width="4" fill="none" stroke-linecap="round"/><path d="M84 37 Q91 44 87 53" stroke="#43B18E" stroke-width="4" fill="none" stroke-linecap="round"/></svg>