<svg xmlns="http://www.w3.org/2000/svg" viewBox="0 0 120 120" width="120" height="120">
<defs>
  <linearGradient id="pot" x1="0" y1="0" x2="0" y2="1">
    <stop offset="0" stop-color="#E4A98C"/><stop offset="1" stop-color="#C67C5E"/>
  </linearGradient>
  <linearGradient id="potRim" x1="0" y1="0" x2="0" y2="1">
    <stop offset="0" stop-color="#EEB79C"/><stop offset="1" stop-color="#D08965"/>
  </linearGradient>
  <linearGradient id="leaf" x1="0" y1="0" x2="1" y2="0">
    <stop offset="0" stop-color="#43B18E"/><stop offset="1" stop-color="#158C6A"/>
  </linearGradient>
  <linearGradient id="leafDark" x1="0" y1="0" x2="1" y2="0">
    <stop offset="0" stop-color="#2E9E7C"/><stop offset="1" stop-color="#0F7357"/>
  </linearGradient>
  <radialGradient id="bloom" cx="0.5" cy="0.4" r="0.7">
    <stop offset="0" stop-color="#FBD36B"/><stop offset="1" stop-color="#F2B705"/>
  </radialGradient>
  <linearGradient id="petal" x1="0" y1="0" x2="0" y2="1">
    <stop offset="0" stop-color="#F0A98C"/><stop offset="1" stop-color="#E4886A"/>
  </linearGradient>
  <linearGradient id="gold" x1="0" y1="0" x2="0" y2="1">
    <stop offset="0" stop-color="#FCDD86"/><stop offset="0.5" stop-color="#F1BE4E"/><stop offset="1" stop-color="#DA9C25"/>
  </linearGradient>
  <linearGradient id="medGreen" x1="0" y1="0" x2="0" y2="1">
    <stop offset="0" stop-color="#2FA680"/><stop offset="1" stop-color="#12795C"/>
  </linearGradient>
  <linearGradient id="ribbon" x1="0" y1="0" x2="0" y2="1">
    <stop offset="0" stop-color="#E4886A"/><stop offset="1" stop-color="#C96A4C"/>
  </linearGradient>
  <filter id="soft" x="-30%" y="-30%" width="160%" height="160%">
    <feDropShadow dx="0" dy="2.5" stdDeviation="2.5" flood-color="#0C3B2C" flood-opacity="0.18"/>
  </filter>
</defs>
<rect x="12" y="12" width="96" height="96" rx="26" fill="#DCEBEF"/><path d="M60 30 L60 52" stroke="#3E7E93" stroke-width="6" stroke-linecap="round"/><path d="M60 46 Q46 46 44 60 Q42 78 50 84 Q58 88 58 74 L58 52 Q58 46 60 46Z" fill="#3E7E93" opacity="0.9"/><path d="M60 46 Q74 46 76 60 Q78 78 70 84 Q62 88 62 74 L62 52 Q62 46 60 46Z" fill="#3E7E93" opacity="0.9"/><circle cx="60" cy="30" r="4.5" fill="#6FA9BB"/><path d="M40 40 Q34 46 36 54" stroke="#6FA9BB" stroke-width="4" fill="none" stroke-linecap="round"/><path d="M80 40 Q86 46 84 54" stroke="#6FA9BB" stroke-width="4" fill="none" stroke-linecap="round"/></svg>