<svg xmlns="http://www.w3.org/2000/svg" viewBox="0 0 120 120" width="120" height="120">
<defs>
  <linearGradient id="pot" x1="0" y1="0" x2="0" y2="1">
    <stop offset="0" stop-color="#E4A98C"/><stop offset="1" stop-color="#C67C5E"/>
  </linearGradient>
  <linearGradient id="potRim" x1="0" y1="0" x2="0" y2="1">
    <stop offset="0" stop-color="#EEB79C"/><stop offset="1" stop-color="#D08965"/>
  </linearGradient>
  <linearGradient id="leaf" x1="0" y1="0" x2="1" y2="0">
    <stop offset="0" stop-color="#43B18E"/><stop offset="1" stop-color="#158C6A"/>
  </linearGradient>
  <linearGradient id="leafDark" x1="0" y1="0" x2="1" y2="0">
    <stop offset="0" stop-color="#2E9E7C"/><stop offset="1" stop-color="#0F7357"/>
  </linearGradient>
  <radialGradient id="bloom" cx="0.5" cy="0.4" r="0.7">
    <stop offset="0" stop-color="#FBD36B"/><stop offset="1" stop-color="#F2B705"/>
  </radialGradient>
  <linearGradient id="petal" x1="0" y1="0" x2="0" y2="1">
    <stop offset="0" stop-color="#F0A98C"/><stop offset="1" stop-color="#E4886A"/>
  </linearGradient>
  <linearGradient id="gold" x1="0" y1="0" x2="0" y2="1">
    <stop offset="0" stop-color="#FCDD86"/><stop offset="0.5" stop-color="#F1BE4E"/><stop offset="1" stop-color="#DA9C25"/>
  </linearGradient>
  <linearGradient id="medGreen" x1="0" y1="0" x2="0" y2="1">
    <stop offset="0" stop-color="#2FA680"/><stop offset="1" stop-color="#12795C"/>
  </linearGradient>
  <linearGradient id="ribbon" x1="0" y1="0" x2="0" y2="1">
    <stop offset="0" stop-color="#E4886A"/><stop offset="1" stop-color="#C96A4C"/>
  </linearGradient>
  <filter id="soft" x="-30%" y="-30%" width="160%" height="160%">
    <feDropShadow dx="0" dy="2.5" stdDeviation="2.5" flood-color="#0C3B2C" flood-opacity="0.18"/>
  </filter>
</defs>
<rect x="12" y="12" width="96" height="96" rx="26" fill="#F3E2DA"/><g stroke="#C16B4C" stroke-linecap="round" stroke-linejoin="round"><rect x="44" y="52" width="32" height="16" rx="6" fill="#C16B4C" stroke="none"/><rect x="30" y="44" width="14" height="32" rx="6" fill="#C16B4C" stroke="none"/><rect x="76" y="44" width="14" height="32" rx="6" fill="#C16B4C" stroke="none"/><rect x="22" y="50" width="10" height="20" rx="5" fill="#E4886A" stroke="none"/><rect x="88" y="50" width="10" height="20" rx="5" fill="#E4886A" stroke="none"/></g></svg>