<svg xmlns="http://www.w3.org/2000/svg" xmlns:xlink="http://www.w3.org/1999/xlink" width="512" zoomAndPan="magnify" viewBox="0 0 384 383.999986" height="512" preserveAspectRatio="xMidYMid meet" version="1.0"><defs><clipPath id="804210a5b5"><path d="M 14.917969 24.878906 L 368 24.878906 L 368 357.878906 L 14.917969 357.878906 Z M 14.917969 24.878906 " clip-rule="nonzero"/></clipPath></defs><rect x="-38.4" width="460.8" fill="#ffffff" y="-38.399999" height="460.799983" fill-opacity="1"/><rect x="-38.4" width="460.8" fill="#ffffff" y="-38.399999" height="460.799983" fill-opacity="1"/><g clip-path="url(#804210a5b5)"><path fill="#438262" d="M 187.710938 331.410156 C 174.621094 335.96875 160.695312 340.707031 147.957031 344.292969 C 125.378906 350.644531 84.949219 360.039062 55.257812 357.59375 C 33.253906 355.777344 17.113281 347.273438 15.117188 328.726562 C 13.152344 310.460938 27.460938 297.136719 47.390625 288.269531 C 54.929688 284.914062 63.238281 282.164062 71.535156 279.914062 C 71.757812 279.839844 71.980469 279.777344 72.210938 279.734375 C 93.769531 273.964844 115.117188 271.566406 122.574219 270.738281 C 128.894531 270.035156 133.71875 269.089844 137.296875 267.714844 C 141.113281 266.246094 143.199219 264.363281 143.753906 261.398438 C 143.757812 261.359375 143.761719 261.324219 143.769531 261.289062 C 145.507812 250.5625 145.464844 241.910156 144.453125 234.78125 C 137.273438 229.183594 129.835938 220.378906 122.855469 208.128906 C 114.988281 194.332031 115.636719 180.320312 121.980469 169.261719 C 128.222656 158.367188 140.125 150.273438 155.285156 148.292969 C 155.289062 148.292969 155.292969 148.289062 155.296875 148.289062 C 155.492188 148.265625 155.6875 148.253906 155.886719 148.25 C 155.886719 148.25 168.300781 148.253906 168.300781 148.253906 C 169.40625 145.074219 170.441406 141.796875 171.371094 138.410156 C 162.9375 132.632812 154.4375 123.574219 150.644531 114.804688 C 150.480469 114.507812 150.347656 114.1875 150.253906 113.859375 C 149.882812 112.925781 149.566406 111.992188 149.304688 111.070312 C 148.308594 107.539062 146.949219 100.644531 147.054688 92.917969 C 146.582031 90.675781 145.109375 82.625 146.175781 73.5625 C 147.054688 66.113281 149.648438 58.050781 155.574219 51.738281 C 158.699219 48.417969 162.761719 45.53125 168.054688 43.515625 C 167.976562 42.910156 167.933594 42.296875 167.933594 41.675781 C 167.933594 32.753906 176.664062 24.914062 188.007812 24.914062 C 199.351562 24.914062 208.082031 32.753906 208.082031 41.675781 C 208.082031 42.328125 208.035156 42.96875 207.949219 43.601562 C 215.523438 46.199219 220.472656 50.214844 223.730469 54.855469 C 227.941406 60.855469 229.386719 68.113281 229.613281 75.425781 C 229.8125 81.921875 229.050781 88.4375 228.878906 93.859375 C 228.871094 101.199219 227.582031 107.683594 226.625 111.070312 C 223.804688 121.058594 213.9375 132.09375 204.191406 138.65625 C 203.929688 141.652344 203.601562 144.871094 203.21875 148.253906 L 219.46875 148.253906 C 219.527344 148.25 219.582031 148.25 219.640625 148.253906 L 233.0625 148.253906 C 252.40625 148.253906 263.84375 159.476562 270.390625 170.792969 C 275.945312 180.386719 277.878906 189.984375 278.273438 192.1875 C 283.191406 205.953125 288.863281 220.789062 292.613281 231.625 C 300.367188 240.707031 314.976562 257.144531 327.027344 266.527344 C 331.484375 269.996094 335.363281 272.613281 338.304688 272.773438 C 355.449219 273.699219 360.992188 282.289062 357.769531 288.882812 C 360.734375 290.707031 364.4375 293.121094 366.199219 295.695312 C 367.128906 297.058594 367.675781 298.484375 367.824219 299.921875 L 367.65625 302.53125 L 366.640625 304.980469 C 364.683594 308.171875 360.734375 309.691406 355.535156 309.121094 C 359.289062 314.882812 361.113281 321.410156 360.324219 328.726562 C 358.328125 347.273438 342.1875 355.777344 320.183594 357.59375 C 290.492188 360.039062 250.0625 350.644531 227.484375 344.292969 C 214.738281 340.707031 200.816406 335.972656 187.710938 331.410156 Z M 71.765625 289.273438 C 64.636719 291.292969 57.570312 293.707031 51.09375 296.585938 C 42.773438 300.289062 35.441406 304.742188 30.4375 310.238281 C 25.953125 315.15625 23.433594 320.925781 24.171875 327.753906 C 25.707031 342.011719 39.09375 347.121094 56.007812 348.515625 C 84.675781 350.882812 123.691406 341.660156 145.492188 335.527344 C 158.480469 331.871094 172.703125 327.015625 186.015625 322.375 C 186.152344 322.316406 186.296875 322.265625 186.441406 322.226562 C 199.476562 317.679688 211.617188 313.355469 220.835938 310.597656 C 226.871094 308.792969 231.75 307.652344 234.964844 307.417969 C 236.992188 307.269531 238.585938 307.484375 239.6875 307.867188 C 253.707031 312.183594 262.429688 313.894531 267.648438 313.914062 C 268.394531 313.917969 269.175781 313.820312 269.785156 313.722656 C 269.421875 313.003906 268.90625 312.046875 268.433594 311.417969 C 267.050781 309.578125 265.433594 307.957031 264.636719 307.191406 C 260.035156 305.152344 234.019531 293.710938 225.398438 292.03125 C 224.097656 291.777344 222.953125 292.34375 221.632812 293.0625 C 220.160156 293.867188 218.589844 294.933594 216.804688 296.105469 C 209.195312 301.097656 198.167969 307.894531 176.605469 307.894531 C 156.257812 307.894531 125.824219 312.566406 102.28125 316.828125 C 102.0625 316.886719 101.835938 316.925781 101.609375 316.949219 C 97.398438 317.714844 93.414062 318.464844 89.761719 319.171875 C 89.570312 319.222656 89.378906 319.261719 89.183594 319.285156 C 76.289062 321.785156 67.609375 323.699219 67.609375 323.699219 C 65.15625 324.242188 62.722656 322.6875 62.183594 320.234375 C 61.644531 317.78125 63.195312 315.347656 65.648438 314.808594 C 65.648438 314.808594 72.613281 313.277344 83.355469 311.164062 C 82.167969 306 79.140625 296.8125 71.765625 289.273438 Z M 151.683594 266.570312 C 150.289062 269.925781 147.757812 272.640625 143.714844 274.789062 C 139.34375 277.109375 132.855469 278.757812 123.578125 279.789062 C 117.15625 280.503906 100.027344 282.382812 81.625 286.726562 C 88.144531 294.984375 91.039062 304.03125 92.273438 309.445312 C 94.164062 309.089844 96.121094 308.722656 98.132812 308.355469 C 100.738281 304.085938 105.207031 299.960938 105.207031 299.960938 C 105.5625 299.640625 105.96875 299.378906 106.40625 299.183594 C 106.40625 299.183594 138.375 285.03125 148.296875 283.09375 C 151.910156 282.386719 155.242188 283.355469 158.976562 285.527344 C 164.742188 288.878906 172.105469 295.746094 187.679688 298.023438 C 202.257812 295.882812 209.628906 289.765625 215.230469 286.273438 C 219.503906 283.605469 223.160156 282.316406 227.144531 283.09375 C 237.066406 285.03125 269.039062 299.183594 269.039062 299.183594 C 269.476562 299.378906 269.878906 299.640625 270.234375 299.957031 C 270.234375 299.957031 274.707031 304.082031 277.304688 308.339844 C 279.140625 308.675781 280.925781 309.011719 282.65625 309.335938 C 283.0625 304.703125 283.878906 297.746094 285.429688 291.578125 C 285.992188 289.347656 286.664062 287.222656 287.4375 285.304688 C 271.558594 281.960938 257.535156 280.417969 251.863281 279.789062 C 242.585938 278.757812 236.097656 277.109375 231.730469 274.789062 C 227.683594 272.640625 225.15625 269.925781 223.761719 266.570312 Z M 154.140625 240.5 C 154.40625 245.523438 154.253906 251.140625 153.5 257.464844 L 221.9375 257.464844 C 220.113281 242.175781 221.753906 230.996094 224.429688 222.359375 C 216.96875 212.304688 213.757812 199.566406 212.765625 187.589844 C 211.753906 175.289062 213.050781 163.859375 214.082031 157.359375 L 202.082031 157.359375 C 199.640625 175.441406 195.71875 196.285156 190.449219 212.347656 C 187.90625 220.09375 185.03125 226.761719 181.898438 231.59375 C 179.464844 235.351562 176.808594 238.074219 174.078125 239.652344 C 168.292969 242.992188 161.46875 243.414062 154.140625 240.5 Z M 148.183594 257.464844 C 147.816406 257.46875 147.492188 257.511719 147.214844 257.585938 C 147.53125 257.511719 147.855469 257.46875 148.183594 257.464844 Z M 156.1875 157.359375 C 144.273438 158.988281 134.800781 165.203125 129.878906 173.789062 C 125.011719 182.28125 124.726562 193.027344 130.765625 203.621094 C 137.464844 215.378906 144.472656 223.675781 151.253906 228.527344 C 151.292969 228.554688 151.332031 228.585938 151.371094 228.613281 C 151.941406 229.019531 152.511719 229.398438 153.078125 229.753906 C 159.167969 233.582031 164.867188 234.457031 169.527344 231.765625 C 171.222656 230.785156 172.746094 228.976562 174.257812 226.644531 C 177.042969 222.347656 179.539062 216.394531 181.796875 209.507812 C 187.265625 192.847656 191.234375 170.878906 193.550781 152.570312 C 193.5625 152.339844 193.589844 152.117188 193.636719 151.898438 C 194.359375 146.097656 194.917969 140.675781 195.304688 135.929688 C 195.308594 135.761719 195.320312 135.589844 195.34375 135.425781 C 195.738281 130.429688 195.941406 126.207031 195.941406 123.105469 C 195.941406 115.128906 194.933594 110.289062 193.582031 107.375 C 193.339844 106.847656 193.058594 106.398438 192.785156 106.03125 C 191.9375 106.976562 190.785156 108.4375 189.753906 110.339844 C 187.296875 114.871094 184.5 122.1875 181.867188 133.960938 C 181.609375 135.105469 181.339844 136.242188 181.058594 137.367188 C 181.042969 137.433594 181.027344 137.503906 181.007812 137.570312 C 179.546875 143.382812 177.777344 148.902344 175.855469 154.144531 C 175.808594 154.300781 175.75 154.453125 175.6875 154.601562 C 171.933594 164.777344 167.632812 173.894531 163.984375 182.050781 C 162.300781 185.8125 160.753906 189.351562 159.496094 192.683594 C 159.429688 192.925781 159.339844 193.164062 159.234375 193.390625 C 157.875 197.085938 156.890625 200.523438 156.496094 203.726562 C 156.1875 206.222656 153.910156 207.996094 151.417969 207.6875 C 148.925781 207.378906 147.148438 205.105469 147.457031 202.613281 C 147.882812 199.171875 148.878906 195.476562 150.265625 191.519531 L 147.71875 184.820312 C 146.828125 182.46875 148.007812 179.839844 150.359375 178.945312 C 152.003906 178.320312 153.785156 178.710938 155.015625 179.808594 C 155.230469 179.320312 155.449219 178.828125 155.671875 178.332031 C 158.519531 171.960938 161.796875 164.988281 164.875 157.359375 Z M 159.105469 111.425781 C 161.894531 117.738281 167.644531 124.148438 173.703125 128.855469 C 177.171875 114.511719 180.957031 106.757812 183.851562 102.539062 C 188.25 96.144531 191.738281 95.988281 191.738281 95.988281 C 192.074219 95.921875 192.414062 95.894531 192.75 95.90625 C 192.75 95.90625 205.046875 95.242188 205.046875 123.105469 C 205.046875 124.148438 205.023438 125.316406 204.980469 126.589844 C 210.898438 121.414062 216.105469 114.816406 217.863281 108.59375 C 218.6875 105.683594 219.773438 100.101562 219.777344 93.789062 C 219.777344 93.789062 219.777344 93.789062 219.777344 93.785156 C 219.777344 88.480469 219.023438 82.625 216.539062 77.484375 C 214.667969 73.613281 210.003906 71.695312 205.332031 70.40625 C 197.070312 68.121094 188.238281 68.324219 188.082031 68.328125 C 188.003906 68.328125 187.925781 68.328125 187.851562 68.328125 C 187.851562 68.328125 187.847656 68.328125 187.847656 68.328125 C 187.691406 68.324219 178.859375 68.121094 170.597656 70.40625 C 165.925781 71.695312 161.265625 73.613281 159.394531 77.484375 C 157.109375 82.207031 156.292969 87.535156 156.171875 92.480469 C 156.171875 92.539062 156.171875 92.59375 156.167969 92.652344 C 156.023438 99.425781 157.195312 105.511719 158.066406 108.59375 C 158.210938 109.097656 158.378906 109.605469 158.566406 110.113281 C 158.8125 110.519531 158.996094 110.960938 159.105469 111.425781 Z M 177.0625 41.179688 C 180.371094 40.667969 184.023438 40.425781 188.058594 40.507812 C 192.070312 40.59375 195.695312 40.910156 198.96875 41.425781 C 198.785156 37 193.703125 34.019531 188.007812 34.019531 C 182.417969 34.019531 177.417969 36.890625 177.0625 41.179688 Z M 219.4375 67.171875 C 218.792969 64.65625 217.800781 62.253906 216.277344 60.085938 C 211.933594 53.894531 203.441406 49.9375 187.871094 49.613281 C 175.171875 49.347656 167.128906 52.738281 162.214844 57.972656 C 159.738281 60.605469 158.074219 63.660156 156.96875 66.8125 C 160.140625 64.464844 164.066406 62.765625 168.167969 61.628906 C 177.195312 59.132812 186.8125 59.203125 187.964844 59.222656 C 189.121094 59.203125 198.734375 59.132812 207.761719 61.628906 C 212.070312 62.820312 216.1875 64.640625 219.4375 67.171875 Z M 284.261719 235.328125 C 280.488281 224.363281 274.609375 209.027344 269.5625 194.871094 C 269.460938 194.59375 269.390625 194.308594 269.347656 194.019531 C 269.347656 194.019531 267.914062 184.691406 262.511719 175.351562 C 257.328125 166.398438 248.375 157.359375 233.0625 157.359375 L 223.308594 157.359375 C 222.34375 162.925781 220.816406 174.402344 221.84375 186.839844 C 222.539062 195.277344 224.386719 204.199219 228.542969 211.902344 C 229.222656 210.453125 229.902344 209.09375 230.546875 207.804688 C 231.808594 205.292969 232.953125 203.085938 233.726562 201.03125 C 234.414062 199.210938 234.816406 197.574219 234.339844 195.875 C 234.214844 195.542969 234.09375 195.214844 233.976562 194.890625 C 233.15625 192.628906 234.246094 190.113281 236.453125 189.160156 C 236.535156 189.125 236.621094 189.089844 236.707031 189.058594 C 238.96875 188.238281 241.484375 189.324219 242.4375 191.535156 C 242.65625 192.042969 242.847656 192.546875 243.003906 193.050781 C 251.089844 214.621094 271.15625 250.316406 277.09375 258.734375 C 281.125 261.566406 304.359375 277.699219 321.863281 285.710938 C 323.9375 286.507812 325.96875 287.34375 327.949219 288.222656 C 332.171875 289.808594 342.59375 295.804688 351.304688 298.757812 C 353.316406 299.441406 355.214844 299.953125 356.878906 300.132812 C 357.292969 300.175781 357.683594 300.199219 358.054688 300.1875 C 357.734375 299.851562 357.359375 299.476562 357.027344 299.21875 C 354.511719 297.234375 351.210938 295.601562 349.59375 294.519531 L 347.738281 292.9375 L 347.078125 291.945312 L 346.664062 290.824219 L 346.546875 289.398438 L 346.9375 287.8125 L 347.582031 286.75 L 348.671875 285.75 C 348.886719 285.605469 349.128906 285.378906 349.308594 285.203125 C 349.097656 284.988281 348.789062 284.691406 348.507812 284.507812 C 346.339844 283.070312 342.734375 282.132812 337.8125 281.867188 C 333.636719 281.640625 327.757812 278.632812 321.433594 273.710938 C 308.660156 263.765625 293.066406 246.207031 285.175781 236.933594 C 284.972656 236.703125 284.789062 236.449219 284.636719 236.175781 C 284.480469 235.902344 284.355469 235.617188 284.261719 235.328125 Z M 201.59375 326.566406 C 211.160156 329.816406 220.859375 332.96875 229.949219 335.527344 C 251.753906 341.660156 290.765625 350.882812 319.4375 348.515625 C 336.351562 347.121094 349.734375 342.011719 351.269531 327.753906 C 352.007812 320.925781 349.488281 315.15625 345.007812 310.238281 C 340.035156 304.78125 332.773438 300.351562 324.527344 296.667969 C 322.554688 295.945312 320.453125 295.074219 318.269531 294.078125 C 311.242188 291.382812 303.757812 289.167969 296.402344 287.351562 C 295.019531 290.171875 294.097656 294.046875 293.359375 297.90625 C 292.421875 302.828125 291.90625 307.777344 291.640625 311.066406 C 291.980469 311.132812 292.316406 311.199219 292.644531 311.265625 C 303.070312 313.324219 309.792969 314.808594 309.792969 314.808594 C 312.246094 315.347656 313.800781 317.78125 313.257812 320.234375 C 312.71875 322.6875 310.285156 324.242188 307.832031 323.699219 C 307.832031 323.699219 301.1875 322.234375 290.878906 320.199219 C 289.34375 319.894531 287.726562 319.578125 286.039062 319.25 C 285.996094 319.242188 285.949219 319.234375 285.902344 319.226562 C 283.609375 318.78125 281.179688 318.320312 278.644531 317.847656 L 278.492188 318.304688 L 277.011719 320.230469 C 275.394531 321.757812 272.320312 323.160156 266.832031 323.007812 C 261.058594 322.847656 251.648438 321.082031 236.917969 316.542969 L 236.792969 316.5 C 236.625 316.5 235.417969 316.496094 234.527344 316.617188 C 231.761719 316.992188 227.980469 317.964844 223.445312 319.320312 C 217.269531 321.167969 209.785156 323.71875 201.59375 326.566406 Z M 114.769531 305.449219 C 130.996094 302.765625 148.71875 300.285156 163.722656 299.273438 C 161.148438 297.785156 158.949219 296.304688 156.96875 295.011719 C 155.585938 294.105469 154.335938 293.300781 153.136719 292.714844 C 152.074219 292.195312 151.113281 291.820312 150.042969 292.03125 C 142.875 293.429688 123.683594 301.570312 114.769531 305.449219 Z M 231.671875 261.289062 C 232.195312 264.316406 234.28125 266.226562 238.148438 267.714844 C 241.726562 269.089844 246.546875 270.035156 252.867188 270.738281 C 258.320312 271.34375 271.195312 272.789062 286.152344 275.777344 C 278.027344 270.527344 272.039062 266.3125 271.289062 265.785156 C 271.066406 265.632812 270.859375 265.460938 270.660156 265.269531 C 270.464844 265.074219 270.289062 264.867188 270.132812 264.648438 C 265.484375 258.324219 250.035156 231.347656 239.976562 209.304688 C 238.316406 212.632812 236.261719 216.476562 234.46875 221.257812 C 234.714844 222.71875 234.242188 224.265625 233.09375 225.339844 C 230.503906 233.953125 229.085938 245.324219 231.667969 261.257812 C 231.667969 261.269531 231.671875 261.277344 231.671875 261.289062 Z M 231.671875 261.289062 " fill-opacity="1" fill-rule="evenodd"/></g></svg>