<svg xmlns="http://www.w3.org/2000/svg" xmlns:xlink="http://www.w3.org/1999/xlink" width="512" zoomAndPan="magnify" viewBox="0 0 384 383.999986" height="512" preserveAspectRatio="xMidYMid meet" version="1.0"><rect x="-38.4" width="460.8" fill="#ffffff" y="-38.399999" height="460.799983" fill-opacity="1"/><rect x="-38.4" width="460.8" fill="#ffffff" y="-38.399999" height="460.799983" fill-opacity="1"/><path fill="#438262" d="M 23.722656 266.425781 L 23.386719 266.328125 C 21.976562 266.066406 20.570312 265.679688 19.210938 265.066406 C 15.679688 263.496094 12.726562 260.617188 10.730469 256.863281 C 10.082031 257.011719 9.382812 256.914062 8.808594 256.488281 C 8.136719 256.003906 6.742188 256.402344 6.042969 257.3125 C 5.007812 258.621094 4.945312 260.664062 5.070312 262.164062 C 5.167969 263.359375 5.46875 264.917969 6.355469 265.589844 C 7.078125 266.128906 8.375 266.253906 9.519531 266.351562 L 18.535156 267.101562 C 20.082031 267.222656 21.679688 267.375 22.9375 266.898438 C 23.222656 266.800781 23.5 266.636719 23.722656 266.425781 Z M 57.6875 259.78125 C 57.613281 257.835938 56.367188 255.878906 54.582031 255.078125 C 53.023438 254.355469 51.203125 254.40625 49.296875 254.457031 C 48.238281 254.46875 47.140625 254.507812 46.066406 254.40625 C 43.933594 254.207031 41.851562 253.496094 40.03125 252.386719 C 38.175781 251.226562 36.925781 249.769531 36.464844 248.160156 C 35.957031 246.414062 36.304688 244.382812 37.453125 242.410156 C 39.296875 239.230469 42.726562 237 46.367188 236.601562 L 46.988281 236.539062 C 47.476562 236.5 47.949219 236.453125 48.347656 236.328125 C 48.386719 236.3125 48.425781 236.3125 48.449219 236.277344 C 47.5 235.578125 46.105469 235.441406 45.28125 235.441406 C 45.28125 235.441406 45.28125 235.441406 45.257812 235.441406 C 44.621094 235.441406 43.960938 235.503906 43.324219 235.554688 C 42.25 235.640625 41.140625 235.726562 40.007812 235.605469 C 38.335938 235.441406 36.816406 234.816406 35.394531 234.195312 C 33.398438 233.308594 31.117188 232.148438 29.371094 230.265625 C 27.601562 228.410156 26.589844 226.066406 25.644531 223.832031 C 25.417969 223.335938 25.207031 222.824219 24.96875 222.324219 C 24.160156 220.554688 22.898438 218.171875 20.90625 216.875 C 20.832031 216.949219 20.753906 217 20.691406 217.0625 C 17.214844 220.390625 14.609375 225.167969 12.960938 231.277344 C 12.066406 234.570312 11.765625 237.199219 11.988281 239.519531 C 12.066406 240.441406 12.152344 241.390625 12.226562 242.347656 C 12.453125 245.15625 12.675781 248.023438 13.363281 250.679688 C 13.609375 248.472656 14.183594 246.527344 14.78125 244.917969 C 16.417969 240.726562 17.9375 238.484375 18.25 238.621094 C 18.648438 238.769531 17.777344 241.390625 16.703125 245.515625 C 16.203125 247.574219 15.730469 250.054688 15.84375 252.75 C 15.90625 254.320312 16.21875 255.964844 16.851562 257.511719 C 17.238281 257.949219 17.625 258.382812 18.0625 258.757812 C 18.449219 258.945312 18.835938 259.09375 19.234375 259.230469 C 19.222656 258.421875 19.234375 257.636719 19.347656 256.886719 C 19.683594 254.40625 20.667969 252.363281 21.691406 250.890625 C 23.847656 247.933594 25.980469 247.148438 26.117188 247.398438 C 26.355469 247.699219 24.707031 248.996094 23.222656 251.839844 C 22.5 253.246094 21.878906 255.042969 21.742188 257.125 C 21.691406 257.984375 21.742188 258.894531 21.878906 259.792969 C 22.363281 259.867188 22.875 259.894531 23.335938 259.878906 C 25.691406 259.832031 27.714844 259.046875 29.234375 258.136719 C 32.289062 256.214844 33.386719 254.082031 33.734375 254.28125 C 33.871094 254.355469 33.785156 254.957031 33.285156 255.953125 C 32.800781 256.925781 31.851562 258.296875 30.257812 259.582031 C 29.074219 260.515625 27.476562 261.414062 25.554688 261.914062 C 26.777344 262.085938 28.023438 262.1875 29.257812 262.285156 L 36.402344 262.824219 C 37.453125 262.671875 38.4375 262.488281 39.320312 262.199219 C 43.898438 260.777344 45.816406 258.121094 46.15625 258.421875 C 46.292969 258.519531 46.03125 259.308594 45.09375 260.453125 C 44.382812 261.3125 43.261719 262.335938 41.714844 263.222656 L 42.402344 263.296875 C 45.492188 263.507812 48.6875 263.757812 51.617188 263.160156 C 54.234375 262.636719 56.378906 261.425781 57.6875 259.78125 Z M 94.382812 221.453125 C 94.410156 221.214844 94.410156 220.976562 94.421875 220.742188 C 94.074219 221.699219 93.734375 222.636719 93.375 223.582031 C 91.617188 227.910156 89.546875 230.839844 86.816406 232.773438 C 84.011719 234.753906 78.375 236.402344 75.15625 233.558594 C 74.171875 232.6875 73.648438 231.539062 73.386719 230.304688 C 71.09375 233.035156 68.085938 234.507812 65.855469 234.941406 C 63.484375 235.441406 62.015625 235.054688 62.015625 234.679688 C 61.976562 234.28125 63.335938 233.933594 65.230469 233.035156 C 67.128906 232.164062 69.597656 230.605469 71.480469 228.171875 C 72.453125 226.914062 73.160156 225.554688 73.660156 224.257812 C 73.773438 223.820312 73.847656 223.398438 73.933594 223.058594 L 73.996094 222.796875 C 74.433594 220.878906 74.859375 219.082031 74.519531 217.523438 C 74.273438 216.289062 73.3125 215.15625 72.4375 215.265625 C 71.953125 215.28125 71.515625 215.355469 71.078125 215.417969 C 70.082031 215.554688 68.960938 215.703125 67.5625 215.503906 L 66.765625 215.367188 C 65.792969 215.203125 64.933594 215.054688 64.171875 215.167969 C 63.285156 215.316406 62.375 214.929688 61.851562 214.195312 C 61.417969 213.570312 60.292969 213.285156 59.507812 213.582031 C 58.75 213.871094 57.914062 213.769531 57.25 213.296875 C 56.617188 212.8125 56.242188 212.0625 56.292969 211.253906 C 56.367188 210.191406 55.207031 208.582031 53.824219 207.824219 C 52.699219 207.199219 51.117188 207.3125 50.070312 208.058594 C 49.496094 208.457031 48.960938 209.121094 48.386719 209.804688 C 47.464844 210.902344 46.417969 212.164062 44.84375 212.949219 C 42.015625 214.355469 39.109375 213.582031 36.578125 212.898438 C 35.941406 212.734375 35.320312 212.5625 34.707031 212.425781 C 30.855469 211.625 26.480469 212.75 22.800781 215.355469 C 24.933594 217 26.265625 219.46875 27.113281 221.351562 C 27.339844 221.863281 27.574219 222.375 27.789062 222.898438 C 28.734375 225.054688 29.609375 227.085938 31.078125 228.671875 C 32.539062 230.230469 34.558594 231.265625 36.355469 232.050781 C 37.589844 232.597656 38.910156 233.121094 40.257812 233.273438 C 41.179688 233.371094 42.140625 233.296875 43.125 233.210938 C 43.847656 233.160156 44.558594 233.109375 45.257812 233.085938 C 45.28125 233.085938 45.28125 233.085938 45.28125 233.085938 C 47.726562 233.085938 49.695312 233.894531 50.816406 235.339844 C 51.054688 235.652344 51.140625 236.066406 51.003906 236.425781 C 50.816406 237 50.417969 238.160156 49.023438 238.582031 C 48.386719 238.78125 47.777344 238.832031 47.191406 238.882812 L 46.640625 238.933594 C 43.75 239.257812 41.066406 240.988281 39.558594 243.472656 C 40.070312 243.035156 40.59375 242.734375 40.992188 242.546875 C 41.890625 242.164062 42.425781 242.164062 42.5 242.324219 C 42.589844 242.511719 42.203125 242.847656 41.617188 243.457031 C 41.066406 244.046875 40.257812 244.941406 39.90625 246.175781 C 39.535156 247.3125 39.882812 249.03125 40.980469 249.84375 C 41.976562 250.640625 43.898438 250.242188 46.105469 249.34375 C 48.25 248.472656 50.605469 247.796875 52.089844 246.949219 C 52.839844 246.515625 53.335938 246.003906 53.660156 245.402344 C 53.972656 244.792969 54.097656 244.121094 54.058594 243.519531 C 54.011719 242.300781 53.300781 241.351562 52.761719 240.816406 C 52.203125 240.265625 51.765625 239.992188 51.828125 239.792969 C 51.867188 239.617188 52.4375 239.507812 53.363281 239.894531 C 54.246094 240.265625 55.59375 241.265625 56.042969 243.195312 C 56.265625 244.144531 56.230469 245.253906 55.804688 246.339844 C 55.40625 247.449219 54.507812 248.457031 53.511719 249.132812 C 52.5 249.816406 51.429688 250.292969 50.382812 250.714844 C 49.308594 251.128906 48.222656 251.5625 47.078125 252 C 47.015625 252.039062 46.941406 252.050781 46.878906 252.085938 C 47.652344 252.125 48.425781 252.125 49.222656 252.101562 C 51.339844 252.050781 53.511719 252 55.554688 252.949219 C 57.636719 253.882812 59.210938 255.816406 59.796875 258.023438 C 59.859375 257.996094 59.921875 257.984375 59.996094 257.972656 C 68.238281 257.300781 76.21875 258.097656 83.324219 260.265625 C 82.539062 255.753906 82.976562 250.777344 84.632812 245.453125 C 85.929688 241.3125 87.824219 237.425781 89.90625 233.519531 C 90.582031 231.898438 91.253906 230.316406 91.941406 228.757812 C 93.011719 226.3125 94.074219 223.921875 94.382812 221.453125 Z M 185.867188 170.492188 C 186.078125 170.328125 186.292969 170.179688 186.515625 170.019531 C 186.277344 170.128906 186.042969 170.230469 185.804688 170.328125 C 185.816406 170.378906 185.855469 170.441406 185.867188 170.492188 Z M 197.140625 212.5 C 197.527344 205.988281 194.808594 199.292969 192.550781 193.820312 C 189.921875 187.347656 187.164062 180.714844 184.058594 174.34375 C 181.753906 175.726562 180.320312 176.515625 180.082031 176.226562 C 179.859375 175.976562 181.015625 174.582031 183.210938 172.671875 C 183.050781 172.347656 182.898438 172.011719 182.738281 171.699219 C 180.519531 172.6875 178.300781 173.683594 176.078125 174.65625 C 164.074219 179.855469 154.171875 183.78125 144.933594 187.011719 C 135.742188 190.21875 126.617188 193.957031 117.777344 198.085938 C 109.320312 202.039062 100.96875 206.738281 96.976562 214.40625 C 96.914062 214.542969 96.867188 214.679688 96.789062 214.816406 C 96.789062 214.941406 96.777344 215.054688 96.765625 215.167969 C 96.765625 215.929688 96.777344 216.675781 96.816406 217.4375 C 96.839844 218.832031 96.902344 220.28125 96.714844 221.738281 C 96.640625 222.273438 96.527344 222.796875 96.402344 223.308594 C 97.113281 222.585938 97.863281 221.925781 98.710938 221.328125 C 101.355469 219.480469 104.820312 218.457031 108.410156 218.507812 C 116.367188 218.597656 123.425781 223.296875 129.097656 227.0625 C 135.417969 231.277344 141.925781 235.605469 147.5625 240.964844 C 147.789062 241.191406 147.914062 241.488281 147.914062 241.8125 C 147.9375 241.8125 147.960938 241.8125 147.976562 241.8125 C 150.417969 241.875 153.4375 242.125 156.714844 242.734375 C 157.300781 242.835938 157.863281 242.949219 158.425781 243.074219 C 159.398438 242.660156 160.605469 242.175781 161.867188 241.550781 C 162.5625 241.238281 163.210938 240.902344 163.796875 240.578125 L 173.238281 226.527344 C 175.582031 223.046875 178.210938 219.09375 181.890625 216.226562 C 186.429688 212.699219 191.867188 212.222656 197.140625 212.5 Z M 248.199219 251.351562 C 251.03125 251.039062 253.921875 250.726562 256.839844 250.664062 C 251.128906 249.132812 244.859375 247.835938 237.835938 246.714844 L 236.554688 246.515625 C 231.527344 245.703125 226.777344 244.929688 221.878906 245.691406 C 217.101562 246.414062 212.214844 244.941406 207.898438 243.660156 C 206.691406 243.296875 205.492188 242.949219 204.335938 242.648438 C 201.726562 241.976562 199.011719 241.839844 196.128906 241.6875 C 195.40625 241.652344 194.695312 241.625 193.984375 241.578125 C 184.222656 240.953125 176.316406 241.300781 169.074219 242.648438 C 168.734375 242.710938 168.398438 242.699219 168.101562 242.636719 L 167.898438 242.933594 C 170.15625 243.808594 172.3125 244.894531 174.382812 246.175781 C 185.28125 242.847656 196.890625 244.554688 207.8125 246.914062 C 209.84375 247.347656 211.851562 247.824219 213.886719 248.273438 C 222.539062 250.28125 231.492188 252.324219 240.34375 252.023438 C 242.9375 251.9375 245.617188 251.652344 248.199219 251.351562 Z M 295.894531 268.582031 C 295.992188 268.570312 296.09375 268.546875 296.203125 268.535156 C 296.066406 268.445312 295.894531 268.359375 295.707031 268.285156 L 276.328125 259.183594 C 271.390625 256.875 265.492188 255.554688 259.296875 255.339844 C 255.816406 255.230469 252.375 255.628906 248.722656 256.039062 C 246.042969 256.328125 243.285156 256.636719 240.492188 256.726562 C 231.054688 257.039062 221.789062 254.929688 212.835938 252.859375 C 210.832031 252.410156 208.824219 251.9375 206.816406 251.515625 C 196.179688 249.21875 184.945312 247.574219 174.78125 250.976562 C 174.097656 251.214844 173.335938 251.113281 172.738281 250.714844 C 170.753906 249.394531 168.648438 248.308594 166.464844 247.425781 C 164.769531 247.136719 162.625 246.714844 160.195312 246.265625 C 158.1875 246.027344 156.355469 245.828125 154.84375 245.617188 C 152.289062 245.640625 145.019531 244.679688 135.816406 243.121094 C 132.960938 242.847656 130.15625 242.449219 127.636719 241.652344 C 112.988281 238.933594 101.367188 236.152344 101.515625 235.390625 C 101.628906 234.855469 107.851562 235.503906 116.804688 236.9375 C 113.5 235.191406 111.554688 234.007812 111.691406 233.707031 C 111.851562 233.347656 114.90625 234.332031 119.71875 236.175781 C 121.640625 236.925781 123.824219 237.773438 126.230469 238.535156 C 127.113281 238.683594 128.039062 238.84375 128.960938 239.019531 C 131.140625 239.417969 133.25 239.832031 135.28125 240.230469 C 136.441406 240.339844 137.625 240.429688 138.859375 240.515625 C 140.679688 240.628906 142.476562 240.867188 144.195312 241.152344 C 139.121094 236.636719 133.398438 232.75 127.789062 229.019531 C 122.375 225.417969 115.644531 220.929688 108.398438 220.867188 C 105.207031 220.777344 102.289062 221.6875 100.058594 223.257812 C 97.226562 225.242188 95.382812 228.347656 93.410156 231.925781 C 92.949219 232.785156 92.5 233.660156 92.039062 234.519531 C 91.117188 236.714844 90.230469 238.96875 89.433594 241.253906 C 89.570312 241.164062 89.683594 241.113281 89.757812 241.164062 C 90.105469 241.390625 89.382812 243.046875 88.546875 245.742188 C 87.738281 248.410156 86.804688 252.285156 86.941406 256.375 C 87.039062 258.398438 87.5625 260.15625 88.511719 261.527344 C 89.160156 262.449219 89.933594 263.222656 90.71875 263.894531 C 95.09375 266.164062 100.308594 267.710938 106.21875 268.496094 C 112.75 269.355469 119.410156 269.230469 125.667969 269.03125 C 143.996094 268.457031 158.175781 267.460938 173.113281 265.691406 C 173.460938 265.640625 173.824219 265.691406 174.183594 265.816406 C 180.230469 268.023438 186.925781 268.597656 192.6875 268.84375 C 208.300781 269.554688 222.8125 268.722656 235.929688 266.375 C 234.046875 266.113281 232.414062 265.890625 231.15625 265.914062 C 229.433594 265.867188 228.300781 266.113281 228.113281 265.726562 C 227.925781 265.429688 228.871094 264.457031 230.894531 263.90625 C 232.886719 263.359375 235.707031 263.472656 238.511719 263.894531 C 241.304688 264.28125 243.6875 264.46875 245.382812 264.269531 C 247.078125 264.09375 248.136719 263.660156 248.398438 263.996094 C 248.625 264.269531 247.851562 265.429688 245.867188 266.203125 C 245.816406 266.226562 245.753906 266.226562 245.679688 266.253906 C 254.472656 270.652344 264.871094 272.085938 274.683594 270.21875 C 267.675781 268.285156 261.789062 267.625 261.789062 266.839844 C 261.765625 266.078125 268.25 265.480469 275.894531 267.585938 C 276.355469 267.75 276.828125 267.871094 277.289062 268.011719 C 277.726562 268.160156 278.5625 268.347656 279.195312 269.269531 C 279.445312 269.65625 279.546875 270.042969 279.582031 270.429688 C 281.664062 270.480469 283.75 270.128906 285.582031 269.417969 C 285.46875 269.058594 285.246094 268.683594 284.894531 268.347656 C 283.648438 267.136719 281.464844 266.8125 279.445312 266.351562 C 277.453125 265.878906 275.65625 265.429688 274.160156 265.003906 C 271.15625 264.167969 269.335938 263.445312 269.421875 263.058594 C 269.496094 262.671875 271.441406 262.699219 274.546875 263.035156 C 276.09375 263.210938 277.925781 263.457031 279.933594 263.78125 C 280.953125 263.945312 282.003906 264.082031 283.210938 264.394531 C 284.410156 264.71875 285.742188 265.253906 286.839844 266.300781 C 287.476562 266.886719 288 267.699219 288.273438 268.582031 C 288.335938 268.582031 288.398438 268.570312 288.472656 268.582031 C 290.917969 269.03125 293.425781 269.03125 295.894531 268.582031 Z M 305.519531 218.84375 L 303.222656 207.796875 C 303.085938 207.101562 302.960938 206.375 302.851562 205.628906 C 302.574219 203.957031 302.289062 202.238281 301.664062 200.976562 C 297.6875 193.109375 296.277344 184.292969 295.929688 176.988281 C 295.132812 177.660156 294.296875 178.257812 293.449219 178.832031 C 295.042969 189.417969 297.863281 199.246094 300.867188 209.644531 L 302.015625 213.609375 C 302.515625 215.355469 303.011719 217.164062 303.5 219.03125 C 304.171875 219.070312 304.859375 218.996094 305.519531 218.84375 Z M 311.851562 261.089844 C 311.839844 260.589844 311.851562 260.078125 311.851562 259.617188 L 311.851562 258.96875 C 311.941406 249.804688 310.019531 240.566406 308.148438 231.625 L 306.191406 222.125 C 305.59375 222.273438 304.96875 222.363281 304.347656 222.386719 C 306.566406 231.5625 308.113281 241.601562 307.164062 251.636719 L 307.078125 252.574219 C 306.839844 254.929688 306.617188 257.148438 307.3125 258.996094 C 307.664062 259.941406 308.523438 260.839844 309.421875 261.226562 C 309.933594 261.425781 310.394531 261.464844 310.78125 261.277344 C 311.128906 261.128906 311.480469 261.078125 311.851562 261.089844 Z M 331.105469 217.449219 C 331.105469 217.101562 331.078125 216.761719 331.078125 216.425781 L 329.132812 148.734375 C 328.921875 141.5625 328.347656 134.183594 323.785156 129.855469 C 319.507812 125.804688 312.738281 125.367188 307.3125 125.453125 C 291.105469 125.691406 274.074219 129.519531 255.257812 137.164062 C 247.414062 140.355469 239.335938 144.144531 229.820312 149.132812 C 226.105469 151.089844 222.191406 153.183594 217.539062 155.753906 C 216.628906 156.253906 215.707031 156.8125 214.78125 157.363281 C 212.675781 158.644531 210.507812 159.941406 208.199219 160.839844 C 205.257812 162.386719 200.753906 164.59375 195.867188 167.324219 C 192.488281 169.207031 189.445312 171.050781 186.925781 172.597656 C 190.15625 179.15625 192.960938 185.929688 195.667969 192.523438 C 198.050781 198.371094 200.957031 205.492188 200.507812 212.75 C 201.117188 212.796875 201.765625 212.859375 202.363281 212.910156 C 203.960938 213.085938 205.542969 213.234375 207.050781 213.320312 C 216.328125 213.796875 227.863281 214.394531 236.679688 209.21875 C 240.957031 206.714844 244.382812 203.035156 247.988281 199.15625 C 251.167969 195.726562 254.472656 192.1875 258.449219 189.429688 C 263.523438 185.941406 269.335938 183.96875 274.945312 182.0625 C 276.242188 181.625 277.539062 181.191406 278.808594 180.714844 C 282.8125 179.308594 287.988281 177.175781 292.128906 173.984375 C 293.972656 172.085938 296.09375 169.730469 298.101562 166.925781 C 303.425781 159.679688 305.679688 152.5625 306.492188 152.796875 C 306.839844 152.886719 306.742188 154.832031 305.855469 157.796875 C 305.167969 160.09375 303.933594 162.972656 302.128906 165.964844 C 307.226562 161.464844 310.941406 157.984375 311.464844 158.410156 C 312.089844 158.894531 307.976562 164.667969 301.453125 170.304688 C 301.15625 170.589844 300.832031 170.839844 300.519531 171.101562 C 300.53125 171.175781 300.542969 171.238281 300.542969 171.3125 C 300.394531 178.78125 301.203125 189.632812 305.867188 198.859375 C 306.828125 200.753906 307.191406 202.960938 307.488281 204.894531 C 307.601562 205.554688 307.699219 206.214844 307.835938 206.839844 L 310.941406 221.8125 C 317.898438 221.761719 324.78125 220.253906 331.105469 217.449219 Z M 378.585938 266.253906 C 378.785156 265.976562 378.585938 265.105469 377.988281 264.554688 C 377.128906 263.757812 375.78125 263.347656 374.371094 262.886719 L 374.023438 262.773438 C 369.734375 261.414062 365.53125 259.582031 361.503906 257.347656 C 359.984375 256.488281 358.210938 255.988281 356.328125 255.429688 C 354.632812 254.941406 352.875 254.445312 351.15625 253.632812 C 344.90625 250.726562 339.535156 245.878906 336.03125 239.941406 C 332.363281 233.78125 331.527344 227.523438 331.242188 221.039062 C 325.042969 223.621094 318.335938 225.03125 311.628906 225.179688 L 312.777344 230.664062 C 314.671875 239.855469 316.640625 249.34375 316.554688 259.007812 L 316.554688 259.667969 C 316.527344 262.425781 316.492188 265.253906 317.863281 267.074219 C 318.761719 268.210938 320.367188 269.03125 322.277344 269.308594 C 324.257812 269.605469 326.453125 269.355469 328.546875 269.121094 C 331.679688 268.746094 334.894531 268.484375 338 268.234375 C 341.078125 267.972656 344.273438 267.710938 347.328125 267.363281 C 347.738281 267.3125 348.148438 267.375 348.523438 267.535156 C 352.699219 269.355469 358.074219 269.292969 362.214844 267.375 C 362.550781 267.199219 362.9375 267.136719 363.300781 267.148438 C 366.480469 267.285156 369.683594 267.273438 372.863281 267.101562 C 372.75 267 372.511719 266.8125 372.203125 266.6875 C 371.765625 266.488281 371.15625 266.265625 370.65625 266.078125 C 369.632812 265.691406 368.699219 265.390625 367.886719 265.117188 C 366.277344 264.617188 365.21875 264.269531 365.230469 263.859375 C 365.230469 263.472656 366.367188 263.121094 368.210938 263.160156 C 369.109375 263.171875 370.21875 263.296875 371.417969 263.570312 C 372.015625 263.734375 372.574219 263.859375 373.300781 264.132812 C 373.984375 264.457031 374.894531 264.804688 375.519531 266.027344 C 375.65625 266.3125 375.71875 266.613281 375.742188 266.925781 C 375.90625 266.898438 376.054688 266.898438 376.203125 266.886719 C 376.703125 266.851562 378.238281 266.714844 378.585938 266.253906 Z M 381.15625 261.078125 C 383.238281 262.972656 384.246094 266.488281 382.363281 269.03125 C 380.753906 271.238281 377.949219 271.476562 376.601562 271.574219 C 372.300781 271.9375 367.960938 272.039062 363.648438 271.875 C 358.585938 274.058594 352.402344 274.144531 347.25 272.113281 C 344.320312 272.425781 341.316406 272.6875 338.386719 272.910156 C 335.320312 273.171875 332.128906 273.433594 329.074219 273.796875 C 327.574219 273.957031 325.929688 274.144531 324.246094 274.144531 C 323.375 274.144531 322.488281 274.09375 321.617188 273.957031 C 318.4375 273.507812 315.78125 272.074219 314.132812 269.929688 C 313.148438 268.632812 312.589844 267.1875 312.277344 265.714844 C 311.617188 265.941406 310.929688 266.101562 310.21875 266.101562 C 309.359375 266.101562 308.472656 265.929688 307.613281 265.554688 C 305.519531 264.707031 303.722656 262.8125 302.898438 260.640625 C 301.828125 257.761719 302.128906 254.753906 302.402344 252.101562 L 302.476562 251.203125 C 303.660156 238.644531 300.617188 225.804688 297.488281 214.894531 L 296.339844 210.953125 C 293.472656 201.003906 290.769531 191.589844 289.097656 181.4375 C 286.054688 183.023438 282.988281 184.230469 280.40625 185.15625 C 279.097656 185.617188 277.789062 186.050781 276.464844 186.515625 C 270.90625 188.410156 265.65625 190.191406 261.128906 193.308594 C 257.5625 195.765625 254.570312 198.96875 251.429688 202.363281 C 247.738281 206.328125 243.921875 210.417969 239.074219 213.273438 C 229.023438 219.167969 216.714844 218.519531 206.816406 218.011719 C 205.207031 217.921875 203.535156 217.75 201.914062 217.597656 C 195.742188 217 189.359375 216.375 184.78125 219.941406 C 181.703125 222.335938 179.382812 225.804688 177.152344 229.144531 L 171.542969 237.488281 C 178.261719 236.539062 185.582031 236.328125 194.273438 236.875 C 194.96875 236.925781 195.679688 236.949219 196.367188 236.988281 C 199.359375 237.136719 202.453125 237.3125 205.507812 238.097656 C 206.714844 238.398438 207.976562 238.78125 209.234375 239.15625 C 213.273438 240.339844 217.453125 241.589844 221.179688 241.039062 C 226.789062 240.179688 231.890625 241.003906 237.289062 241.875 L 238.585938 242.074219 C 248.699219 243.671875 263.75 246.5625 277.636719 253.085938 C 281.265625 254.792969 284.832031 256.738281 288.238281 258.894531 C 288.671875 259.183594 288.984375 259.570312 289.160156 260.015625 L 297.714844 264.019531 C 301.117188 265.628906 301.628906 267.710938 301.441406 269.183594 C 301.191406 271.253906 299.472656 272.710938 296.726562 273.222656 C 293.972656 273.722656 291.167969 273.757812 288.398438 273.335938 C 284.671875 275.078125 280.21875 275.605469 275.992188 274.78125 C 272.738281 275.417969 269.421875 275.753906 266.09375 275.753906 C 257.824219 275.753906 249.582031 273.746094 242.414062 269.90625 C 227.488281 273.148438 210.691406 274.382812 192.476562 273.558594 C 186.527344 273.285156 179.609375 272.699219 173.113281 270.429688 C 158.238281 272.175781 144.058594 273.171875 125.816406 273.746094 C 119.371094 273.957031 112.5 274.070312 105.605469 273.148438 C 97.988281 272.148438 91.367188 269.957031 85.980469 266.636719 C 85.65625 266.453125 85.40625 266.175781 85.21875 265.890625 C 78.222656 263.160156 70.058594 262.011719 61.464844 262.585938 C 59.484375 265.15625 56.292969 267.023438 52.550781 267.773438 C 48.972656 268.496094 45.46875 268.234375 42.050781 267.972656 L 28.898438 266.976562 C 28.886719 266.976562 28.886719 266.976562 28.886719 266.976562 C 28.300781 268.882812 26.703125 270.554688 24.535156 271.339844 C 23.25 271.789062 21.953125 271.925781 20.71875 271.925781 C 19.796875 271.925781 18.921875 271.863281 18.136719 271.789062 L 9.109375 271.039062 C 7.515625 270.878906 5.34375 270.703125 3.546875 269.355469 C 1.703125 267.972656 0.632812 265.679688 0.382812 262.535156 C 0.105469 259.183594 0.769531 256.4375 2.328125 254.417969 C 3.484375 252.921875 5.367188 251.886719 7.3125 251.652344 L 6.15625 250.304688 L 7.863281 251.589844 C 8.175781 251.5625 8.460938 251.613281 8.761719 251.636719 C 8.023438 248.695312 7.761719 245.664062 7.539062 242.710938 C 7.464844 241.789062 7.402344 240.878906 7.300781 239.980469 C 7.027344 237.074219 7.375 233.90625 8.425781 230.054688 C 10.308594 223.097656 13.324219 217.585938 17.425781 213.671875 C 22.550781 208.78125 29.519531 206.550781 35.667969 207.824219 C 36.355469 207.960938 37.078125 208.160156 37.789062 208.347656 C 39.707031 208.871094 41.515625 209.355469 42.738281 208.734375 C 43.449219 208.382812 44.074219 207.636719 44.769531 206.789062 C 45.480469 205.941406 46.265625 205.003906 47.328125 204.246094 C 49.84375 202.410156 53.375 202.199219 56.09375 203.707031 C 57.925781 204.71875 59.71875 206.601562 60.542969 208.769531 C 62.089844 208.832031 63.609375 209.417969 64.746094 210.417969 C 65.730469 210.390625 66.703125 210.578125 67.5625 210.726562 L 68.285156 210.851562 C 68.996094 210.953125 69.582031 210.867188 70.40625 210.753906 C 70.980469 210.679688 71.566406 210.605469 72.203125 210.566406 C 75.84375 210.390625 78.484375 213.507812 79.121094 216.539062 C 79.671875 219.132812 79.085938 221.636719 78.574219 223.84375 L 78.523438 224.121094 C 77.4375 228.707031 78 229.78125 78.261719 230.03125 C 79.234375 230.890625 82.425781 230.117188 84.097656 228.945312 C 86.042969 227.546875 87.601562 225.292969 88.996094 221.8125 C 89.433594 220.742188 89.820312 219.65625 90.207031 218.558594 C 90.96875 216.464844 91.726562 214.308594 92.800781 212.222656 C 97.425781 203.320312 106.589844 198.121094 115.792969 193.820312 C 124.757812 189.617188 134.046875 185.839844 143.386719 182.585938 C 152.515625 179.394531 162.300781 175.492188 174.195312 170.328125 C 179.335938 168.097656 184.457031 165.816406 189.570312 163.507812 C 190.941406 162.910156 192.328125 162.222656 193.734375 161.515625 C 197.238281 159.769531 200.894531 157.960938 204.683594 157.023438 C 207.238281 156.425781 209.84375 154.867188 212.339844 153.347656 C 213.3125 152.75 214.296875 152.164062 215.257812 151.636719 C 219.957031 149.058594 223.886719 146.914062 227.652344 144.96875 C 237.300781 139.917969 245.507812 136.050781 253.472656 132.8125 C 272.851562 124.929688 290.429688 120.976562 307.25 120.753906 C 313.574219 120.652344 321.527344 121.214844 327.027344 126.4375 C 332.886719 132 333.597656 140.429688 333.835938 148.597656 L 335.769531 216.289062 C 335.96875 223.84375 336.15625 230.976562 340.070312 237.535156 C 343.113281 242.660156 347.75 246.863281 353.136719 249.371094 C 354.535156 250.015625 356.042969 250.453125 357.636719 250.914062 C 359.695312 251.515625 361.804688 252.125 363.785156 253.234375 C 367.539062 255.316406 371.464844 257.023438 375.445312 258.285156 L 375.804688 258.398438 C 377.550781 258.957031 379.546875 259.59375 381.15625 261.078125 " fill-opacity="1" fill-rule="nonzero"/><path fill="#438262" d="M 333.449219 254.753906 C 333.671875 255.03125 332.949219 256.113281 331.03125 256.6875 C 329.183594 257.25 326.140625 257.011719 323.761719 254.878906 C 321.453125 252.761719 320.816406 249.867188 320.953125 248.023438 C 321.09375 246.128906 321.777344 245.117188 322.128906 245.21875 C 322.539062 245.304688 322.589844 246.363281 322.949219 247.871094 C 323.3125 249.371094 324.097656 251.351562 325.679688 252.773438 C 327.214844 254.183594 329.285156 254.695312 330.753906 254.707031 C 332.226562 254.753906 333.238281 254.40625 333.449219 254.753906 " fill-opacity="1" fill-rule="nonzero"/><path fill="#438262" d="M 176.527344 257.933594 C 180.832031 257.796875 184.148438 259.070312 183.984375 259.832031 C 183.859375 260.617188 180.570312 260.640625 176.617188 260.777344 C 172.664062 260.878906 169.382812 261.027344 169.195312 260.253906 C 168.996094 259.507812 172.226562 258.046875 176.527344 257.933594 " fill-opacity="1" fill-rule="nonzero"/><path fill="#438262" d="M 79.222656 245.078125 C 79.359375 245.851562 75.480469 247.136719 70.605469 248.210938 C 65.730469 249.28125 61.664062 249.730469 61.464844 248.984375 C 61.253906 248.246094 65.042969 246.527344 70.007812 245.429688 C 74.945312 244.34375 79.109375 244.308594 79.222656 245.078125 " fill-opacity="1" fill-rule="nonzero"/><path fill="#438262" d="M 51.976562 243.074219 C 52.078125 243.707031 51.777344 244.582031 51.316406 245.066406 C 50.894531 245.589844 50.492188 245.828125 50.09375 246.089844 C 48.449219 247.136719 46.640625 247.347656 45.429688 247.164062 C 44.195312 247 43.546875 246.476562 43.609375 246.101562 C 43.761719 245.328125 46.292969 245.179688 48.585938 243.683594 C 48.886719 243.507812 49.171875 243.296875 49.257812 243.234375 C 49.308594 243.195312 49.296875 243.195312 49.347656 243.222656 C 49.347656 243.222656 49.359375 243.195312 49.359375 243.183594 C 49.433594 243.035156 49.371094 242.660156 49.132812 242.363281 C 48.636719 241.726562 47.960938 241.164062 48.148438 240.804688 C 48.285156 240.480469 48.984375 240.191406 50.292969 240.726562 C 50.941406 241.039062 51.816406 241.761719 51.976562 243.074219 " fill-opacity="1" fill-rule="nonzero"/></svg>